<svg xmlns="http://www.w3.org/2000/svg" xmlns:xlink="http://www.w3.org/1999/xlink" width="29" height="24" viewBox="0 0 29 24">
    <defs>
        <path id="a" d="M.077.022h21.998V22.23H.077z"/>
        <path id="c" d="M.078 11.006c-.066 6.132 4.805 11.156 10.879 11.223 6.074.067 11.051-4.85 11.117-10.982C22.14 5.115 17.27.09 11.195.023h-.121C5.054.022.143 4.913.078 11.005"/>
        <path id="e" d="M.078 11.006c-.066 6.132 4.805 11.156 10.879 11.223 6.074.067 11.051-4.85 11.117-10.982C22.14 5.115 17.27.09 11.195.023h-.121C5.054.022.143 4.913.078 11.005"/>
        <path id="g" d="M.078 11.006c-.066 6.132 4.805 11.156 10.879 11.223 6.074.067 11.051-4.85 11.117-10.982C22.14 5.115 17.27.09 11.195.023h-.121C5.054.022.143 4.913.078 11.005"/>
        <path id="i" d="M.078 11.006c-.066 6.132 4.805 11.156 10.879 11.223 6.074.067 11.051-4.85 11.117-10.982C22.14 5.115 17.27.09 11.195.023h-.121C5.054.022.143 4.913.078 11.005"/>
        <path id="k" d="M.078 11.006c-.066 6.132 4.805 11.156 10.879 11.223 6.074.067 11.051-4.85 11.117-10.982C22.14 5.115 17.27.09 11.195.023h-.121C5.054.022.143 4.913.078 11.005z"/>
        <path id="m" d="M.078 11.006c-.066 6.132 4.805 11.156 10.879 11.223 6.074.067 11.051-4.85 11.117-10.982C22.14 5.115 17.27.09 11.195.023h-.121C5.054.022.143 4.913.078 11.005z"/>
        <path id="o" d="M.078 11.006c-.066 6.132 4.805 11.156 10.879 11.223 6.074.067 11.051-4.85 11.117-10.982C22.14 5.115 17.27.09 11.195.023h-.121C5.054.022.143 4.913.078 11.005"/>
        <path id="q" d="M.078 11.006c-.066 6.132 4.805 11.156 10.879 11.223 6.074.067 11.051-4.85 11.117-10.982C22.14 5.115 17.27.09 11.195.023h-.121C5.054.022.143 4.913.078 11.005"/>
    </defs>
    <g fill="none" fill-rule="evenodd">
        <g transform="translate(2.74 .914)">
            <mask id="b" fill="#fff">
                <use xlink:href="#a"/>
            </mask>
            <path fill="#7E50E5" d="M22.074 11.247C22.14 5.115 17.27.09 11.195.023 5.121-.043.144 4.873.078 11.006c-.066 6.132 4.804 11.156 10.879 11.223 6.074.067 11.051-4.85 11.117-10.982" mask="url(#b)"/>
        </g>
        <g transform="translate(2.74 .914)">
            <mask id="d" fill="#fff">
                <use xlink:href="#c"/>
            </mask>
            <path fill="#BA8271" d="M16.914 16.305c.284.165.55.333.8.501a8.952 8.952 0 0 0-.8-.501" mask="url(#d)"/>
        </g>
        <g transform="translate(2.74 .914)">
            <mask id="f" fill="#fff">
                <use xlink:href="#e"/>
            </mask>
            <path fill="#BA8271" d="M13.734 20.513a.457.457 0 0 1-.291.1.582.582 0 0 1-.08-.006c-.62-.086-1.421-1.188-1.455-1.234a.102.102 0 0 1 .022-.142.1.1 0 0 1 .14.023c.216.3.875 1.091 1.32 1.153a.273.273 0 0 0 .22-.053c.404-.32-.032-1.418-.234-1.814a.102.102 0 0 1 .043-.136.1.1 0 0 1 .135.043c.082.161.784 1.586.18 2.066m-3.598.746a.335.335 0 0 1-.082.011.26.26 0 0 1-.171-.063c-.219-.185-.197-.73-.143-1.48.018-.241.041-.559.023-.692-.085.088-.208.322-.31.516-.279.532-.627 1.194-1.083.95-.645-.344-.022-2.06.052-2.254a.1.1 0 0 1 .129-.058c.051.02.077.078.058.13-.252.67-.515 1.807-.146 2.003.28.15.576-.413.813-.865.197-.376.316-.59.463-.645.049-.018.1-.01.14.02.116.088.102.342.061.91-.034.47-.086 1.177.071 1.31.014.012.033.022.076.012.598-.15 1.14-1.446 1.112-1.63a.1.1 0 0 1 .084-.115.1.1 0 0 1 .113.085c.045.297-.568 1.681-1.26 1.855m3.194-5.517a8.421 8.421 0 0 0-2.297-.262c-1.027.017-1.945.08-2.736.252-.2-.256-.643-.354-1.266-.244-2.088.75-3.636 1.94-4.46 2.677a11.104 11.104 0 0 0 2.08 1.971c.234-.391.488-.731.762-1.017l.087-1.164a.103.103 0 0 1 .107-.094.1.1 0 0 1 .092.109l-.202 2.723a10.867 10.867 0 0 0 5.46 1.536 10.866 10.866 0 0 0 5.586-1.47l-.122-2.673a.1.1 0 0 1 .095-.105.099.099 0 0 1 .104.096l.065 1.412c.197.247.382.524.554.832a11.094 11.094 0 0 0 2.146-1.924c-.839-.793-2.513-2.153-4.81-2.953-.543-.043-1.009.057-1.245.298" mask="url(#f)"/>
        </g>
        <g transform="translate(2.74 .914)">
            <mask id="h" fill="#fff">
                <use xlink:href="#g"/>
            </mask>
            <path fill="#524666" d="M16.914 16.305a12.657 12.657 0 0 0-3.575-1.427.101.101 0 0 0-.043.198c.445.1.871.226 1.278.367 2.299.801 3.972 2.16 4.811 2.954.044-.05.088-.1.131-.152a14.337 14.337 0 0 0-2.602-1.94" mask="url(#h)"/>
        </g>
        <g transform="translate(2.74 .914)">
            <mask id="j" fill="#fff">
                <use xlink:href="#i"/>
            </mask>
            <path fill="#524666" d="M8.679 15.025a.101.101 0 0 0-.04-.198c-2.959.6-5.143 2.244-6.192 3.18.04.054.082.106.125.158.823-.738 2.371-1.927 4.459-2.677a11.808 11.808 0 0 1 1.648-.463" mask="url(#j)"/>
        </g>
        <g transform="translate(2.74 .914)">
            <mask id="l" fill="#fff">
                <use xlink:href="#k"/>
            </mask>
            <path fill="#524666" d="M16.62 18.077a.099.099 0 0 0-.104-.096.1.1 0 0 0-.095.105l.122 2.674.195-.115-.036-.793c.13.183.25.379.364.586.059-.038.116-.078.173-.117a6.005 6.005 0 0 0-.554-.832l-.064-1.412z" mask="url(#l)"/>
        </g>
        <g transform="translate(2.74 .914)">
            <mask id="n" fill="#fff">
                <use xlink:href="#m"/>
            </mask>
            <path fill="#524666" d="M5.7 17.97a.1.1 0 0 0-.093-.109.103.103 0 0 0-.107.093l-.087 1.165a5.616 5.616 0 0 0-.761 1.017c.056.04.11.083.167.123.174-.296.364-.566.57-.808l-.084 1.128c.063.04.128.076.192.115l.202-2.724z" mask="url(#n)"/>
        </g>
        <g transform="translate(2.74 .914)">
            <mask id="p" fill="#fff">
                <use xlink:href="#o"/>
            </mask>
            <path fill="#524666" d="M11.283 19.32a.1.1 0 0 0-.084.114c.027.184-.514 1.48-1.112 1.63-.043.01-.062 0-.076-.011-.157-.134-.105-.842-.071-1.31.041-.568.055-.823-.061-.912a.145.145 0 0 0-.14-.019c-.147.054-.266.27-.463.645-.237.452-.532 1.015-.813.865-.37-.196-.107-1.333.146-2.003a.101.101 0 0 0-.058-.13.1.1 0 0 0-.13.058c-.073.195-.696 1.91-.051 2.254.456.244.805-.418 1.083-.95.102-.194.225-.428.31-.516.018.133-.005.45-.022.693-.055.749-.077 1.294.142 1.48.036.03.093.062.172.062a.333.333 0 0 0 .08-.01c.693-.175 1.306-1.56 1.261-1.856a.1.1 0 0 0-.113-.085" mask="url(#p)"/>
        </g>
        <g transform="translate(2.74 .914)">
            <mask id="r" fill="#fff">
                <use xlink:href="#q"/>
            </mask>
            <path fill="#524666" d="M13.419 18.404a.102.102 0 0 0-.043.136c.202.396.638 1.494.234 1.814a.274.274 0 0 1-.22.053c-.445-.062-1.104-.853-1.32-1.153a.1.1 0 0 0-.14-.023.102.102 0 0 0-.022.142c.034.046.835 1.148 1.455 1.234a.456.456 0 0 0 .371-.095c.604-.48-.098-1.904-.18-2.065a.1.1 0 0 0-.135-.043" mask="url(#r)"/>
        </g>
        <g>
            <path fill="#BA8271" d="M13.677 3.842S12.388.589 14.39.296c1.767-.258 1.921 2.187 1.514 3.3"/>
            <path fill="#524666" d="M13.677 3.941a.1.1 0 0 1-.093-.063c-.033-.082-.789-2.02-.18-3.063.202-.345.528-.553.972-.617.542-.08.996.082 1.312.467.63.767.585 2.214.31 2.965a.101.101 0 0 1-.128.06.1.1 0 0 1-.06-.128c.251-.689.298-2.071-.277-2.77-.274-.333-.653-.467-1.128-.397-.385.056-.656.226-.827.52-.56.96.185 2.871.193 2.89a.1.1 0 0 1-.094.136"/>
            <path fill="#EFD1C4" d="M28.041 11.132c.17-1.829-1.06-3.436-2.746-3.59-1.686-.154-3.19 1.204-3.36 3.033-.17 1.829 1.06 3.436 2.746 3.59 1.687.154 3.19-1.204 3.36-3.033"/>
            <path fill="#524666" d="M25.035 7.63c-1.529 0-2.846 1.297-3 2.954-.164 1.771 1.027 3.333 2.655 3.482.084.007.168.011.252.011 1.528 0 2.846-1.297 3-2.954a3.346 3.346 0 0 0-.658-2.354c-.501-.655-1.21-1.056-1.998-1.128a2.816 2.816 0 0 0-.251-.011m-.093 6.646c-.09 0-.18-.004-.27-.012-1.739-.159-3.011-1.818-2.837-3.698.163-1.758 1.569-3.136 3.2-3.136.09 0 .18.005.27.013.844.077 1.603.505 2.14 1.206.533.698.78 1.583.696 2.492-.163 1.758-1.568 3.135-3.2 3.135"/>
            <path fill="#524666" d="M26.91 11.002h-.008a.1.1 0 0 1-.091-.108c.1-1.089-.63-2.048-1.628-2.139a1.735 1.735 0 0 0-1.33.458 2.064 2.064 0 0 0-.664 1.35.101.101 0 0 1-.109.09.1.1 0 0 1-.091-.108 2.262 2.262 0 0 1 .728-1.48 1.935 1.935 0 0 1 1.484-.508c1.109.1 1.92 1.157 1.81 2.355a.1.1 0 0 1-.1.09"/>
            <path fill="#EFD1C4" d="M.11 10.831C-.02 9 1.244 7.42 2.934 7.301c1.689-.117 3.163 1.273 3.293 3.105.13 1.832-1.135 3.412-2.824 3.53-1.69.117-3.164-1.273-3.293-3.105"/>
            <path fill="#524666" d="M3.133 7.394c-.064 0-.128.002-.192.007C1.309 7.514.084 9.05.21 10.824c.125 1.762 1.55 3.125 3.186 3.012.788-.054 1.506-.44 2.022-1.084a3.35 3.35 0 0 0 .708-2.34c-.12-1.692-1.434-3.018-2.993-3.018m.07 6.648c-1.664 0-3.066-1.407-3.194-3.204-.133-1.883 1.176-3.515 2.917-3.636 1.755-.12 3.268 1.327 3.4 3.197a3.546 3.546 0 0 1-.75 2.477c-.552.689-1.32 1.1-2.166 1.16a2.98 2.98 0 0 1-.207.006"/>
            <path fill="#524666" d="M1.245 10.726a.1.1 0 0 1-.1-.092c-.085-1.2.75-2.239 1.86-2.316a1.933 1.933 0 0 1 1.473.54c.408.385.655.916.696 1.495a.1.1 0 0 1-.094.107c-.059.002-.103-.038-.107-.093a2.065 2.065 0 0 0-.633-1.364 1.742 1.742 0 0 0-1.32-.487c-1 .07-1.752 1.013-1.675 2.104a.1.1 0 0 1-.093.106h-.007"/>
            <path fill="#BA8271" d="M23.47 10.107c-.039 3.618-3.984 6.509-9.653 6.448-5.668-.061-9.155-3.032-9.116-6.65.04-3.617 3.59-6.512 9.26-6.451 5.668.06 9.55 3.036 9.51 6.653"/>
            <path fill="#524666" d="M11.472 16.455c-.006 0-.012 0-.018-.002-.4-.07-.672-.142-.684-.145-3.78-.867-6.202-3.381-6.17-6.404.036-3.219 2.748-5.723 6.908-6.379a.1.1 0 1 1 .032.197c-4.06.64-6.704 3.068-6.738 6.184-.033 2.97 2.273 5.35 6.017 6.209.005.001.28.073.67.142a.1.1 0 0 1-.017.198M16.01 16.525a.1.1 0 0 1-.1-.085.1.1 0 0 1 .085-.113c.345-.048.608-.097.61-.098 4.015-.726 6.733-3.187 6.765-6.123.037-3.338-3.266-6.002-8.032-6.477a.1.1 0 0 1-.09-.11.101.101 0 0 1 .11-.089c4.874.486 8.25 3.233 8.213 6.678-.033 3.035-2.817 5.573-6.929 6.317-.002 0-.269.05-.618.1h-.015"/>
            <path fill="#EFD1C4" d="M11.183 5.217s.802 2.274 1.661 2.036c.86-.239.75-2.288.75-2.288s1.27 2.587 2.194 2.593c.96.007.86-2.637.86-2.637s5.52.45 5.465 5.476c-.055 5.026-7.844 5.12-8.316 5.115-.472-.006-7.892-.298-7.836-5.377.055-5.08 5.222-4.918 5.222-4.918"/>
            <path fill="#524666" d="M10.479 10.103a1.01 1.01 0 0 0-1.003-1.016 1.01 1.01 0 0 0-1.025.995 1.01 1.01 0 0 0 1.003 1.016 1.01 1.01 0 0 0 1.025-.995M7.86 8.251a.331.331 0 0 1-.31-.459c.026-.06.631-1.484 2.088-1.344.484.045.9.265 1.2.636a.33.33 0 0 1-.05.467.337.337 0 0 1-.47-.05 1.04 1.04 0 0 0-.744-.392c-.966-.092-1.4.926-1.404.936a.335.335 0 0 1-.31.206M17.371 10.177c.006-.555.465-1 1.025-.994a1.01 1.01 0 0 1 1.003 1.016 1.01 1.01 0 0 1-1.025.995 1.01 1.01 0 0 1-1.003-1.017M20.037 8.382a.335.335 0 0 1-.312-.211c-.018-.045-.423-1.037-1.384-.968a1.04 1.04 0 0 0-.752.377.336.336 0 0 1-.472.04.33.33 0 0 1-.04-.469c.31-.364.73-.575 1.215-.61 1.453-.106 2.033 1.328 2.057 1.389a.331.331 0 0 1-.312.452M13.873 11.058h-.001c-.401-.004-.749-.212-1.056-.396-.335-.2-.55-.318-.706-.203a.101.101 0 0 1-.14-.021.1.1 0 0 1 .02-.14c.274-.2.592-.008.93.194.285.17.608.363.954.367a.1.1 0 0 1 .1.1.1.1 0 0 1-.1.1"/>
            <path fill="#524666" d="M13.885 11.058h-.013a.1.1 0 0 1-.1-.1.1.1 0 0 1 .101-.099h.011c.343 0 .666-.184.952-.347.342-.195.665-.379.933-.173a.099.099 0 0 1 .019.14.101.101 0 0 1-.141.018c-.155-.118-.37-.005-.71.188-.308.175-.657.373-1.052.373"/>
            <path fill="#BA8271" d="M10.998 4S7.91 2.147 9.254.683c1.138-1.241 4.049.974 4.343 2.81"/>
            <path fill="#524666" d="M10.998 4.1a.1.1 0 0 1-.052-.014C10.867 4.04 9.008 2.91 8.828 1.68c-.057-.391.061-.75.351-1.065.358-.39.893-.493 1.549-.299 1.353.401 2.768 1.908 2.968 3.16a.1.1 0 0 1-.083.114.1.1 0 0 1-.115-.082c-.187-1.167-1.561-2.625-2.828-3-.402-.12-.96-.175-1.342.24-.251.274-.35.57-.3.903.165 1.136 2.004 2.254 2.022 2.265a.1.1 0 0 1-.052.185M13.905 13.397a9.429 9.429 0 0 1-1.797-.17c-1.496-.29-2.376-.84-2.413-.862a.1.1 0 0 1-.03-.138.101.101 0 0 1 .138-.03c.034.022 3.521 2.16 8.27.109-.072-.045-.28-.134-.867-.239a.1.1 0 1 1 .036-.196c.898.16 1.04.303 1.061.42a.162.162 0 0 1-.08.166c-1.63.715-3.106.94-4.318.94"/>
        </g>
    </g>
</svg>
