<svg xmlns="http://www.w3.org/2000/svg" xmlns:xlink="http://www.w3.org/1999/xlink" width="51" height="51" viewBox="0 0 51 51">
    <defs>
        <path id="a" d="M30.44 37.627c0 .661-.557 1.199-1.242 1.199H5.802c-.685 0-1.241-.538-1.241-1.2V5.374c0-.661.556-1.199 1.24-1.199h2.62l-.002 12.393c.012 1.038 1.316 1.544 2.065.803l2.86-2.826a1.235 1.235 0 0 1 1.682-.039l3.232 2.902c.776.697 2.037.157 2.027-.865V4.174h8.913c.685 0 1.241.538 1.241 1.2v32.253zM29.197.25H5.802C2.878.25.5 2.548.5 5.373v32.254c0 2.823 2.378 5.123 5.302 5.123h23.396c2.924 0 5.302-2.3 5.302-5.123V5.373C34.5 2.548 32.122.25 29.198.25z"/>
    </defs>
    <use fill="#45D0C1" fill-rule="evenodd" transform="translate(8 4)" xlink:href="#a"/>
</svg>
