<svg xmlns="http://www.w3.org/2000/svg" xmlns:xlink="http://www.w3.org/1999/xlink" width="193" height="24" viewBox="0 0 193 24">
    <defs>
        <path id="a" d="M.077.159h19.216v19.825H.077z"/>
        <path id="b" d="M.159.138h9.426v9.913H.159z"/>
    </defs>
    <g fill="none" fill-rule="evenodd">
        <path fill="#45D0C1" d="M62.441 4.571c5.33 0 9.65 4.35 9.65 9.715S67.771 24 62.441 24s-9.65-4.35-9.65-9.714c0-5.365 4.32-9.715 9.65-9.715zm31.913-.412c4.478 0 8.247 3.104 9.36 7.322a.775.775 0 0 1-.451.919l-3.773 1.519-9.127 3.47a5.09 5.09 0 0 0 3.99 1.941c2.181 0 4.046-1.388 4.794-3.347a.533.533 0 0 1 .494-.352l3.937.001a.3.3 0 0 1 .29.36c-.876 4.555-4.803 7.992-9.515 7.992-5.48 0-9.9-4.648-9.69-10.299.2-5.35 4.455-9.527 9.691-9.526zm-61.815.47h.004c.217.025.38.203.38.415v3.542a.417.417 0 0 1-.4.41c-1.223.066-1.893.339-2.954.82-1.172.53-2.013 1.327-2.526 2.39v10.55a.675.675 0 0 1-.684.663l-3.533.01a.675.675 0 0 1-.688-.664V5.223c0-.192.16-.347.36-.347h3.784c.198 0 .358.155.358.347v2.125s1.486-3.24 5.9-2.72zm51.089 0h.003c.218.025.38.203.38.415v3.542a.417.417 0 0 1-.4.41c-1.223.066-1.893.339-2.954.82-1.171.53-2.013 1.327-2.526 2.39v10.55a.675.675 0 0 1-.684.663l-3.532.01a.675.675 0 0 1-.689-.664V5.272c0-.219.184-.396.41-.396h3.683c.226 0 .41.177.41.396v2.076s1.486-3.24 5.899-2.72zm-32.213.661c.69-.16 1.36-.185 1.944-.098L46.82 22.878a.793.793 0 0 1-.744.523h-.09a.784.784 0 0 1-.199.028h-3.88a.793.793 0 0 1-.744-.523L34.626 5.22a5.163 5.163 0 0 1 1.676.043c1.63.299 3.418 1.35 4.459 3.489.146.3.277.623.391.968l2.836 8.34 2.845-8.368a7.79 7.79 0 0 1 .45-1.08c.99-1.949 2.608-2.967 4.132-3.322zM13.16 2.857c.556 0 .898.058.898.058l7.475 19.751a.562.562 0 0 1-.524.763h-4.22a.56.56 0 0 1-.526-.366l-2.061-5.544H7.267l-2.03 5.541a.56.56 0 0 1-.526.369H.56a.562.562 0 0 1-.523-.764L5.5 8.381c.07-.183.146-.359.223-.53l.07-.152c.057-.122.116-.242.175-.358 2.04-3.978 5.548-4.484 7.191-4.484zm49.281 6.275c-2.828 0-5.12 2.307-5.12 5.154 0 2.846 2.292 5.154 5.12 5.154 2.828 0 5.12-2.308 5.12-5.154 0-2.847-2.292-5.154-5.12-5.154zm31.912-.32c-2.841 0-5.145 2.355-5.145 5.259 0 .145.01.288.021.431l9.276-3.527c-.936-1.31-2.445-2.163-4.152-2.163zM10.8 6.749L8.033 14.28h5.336l-2.568-7.532zM9.831 0l2.122.003c.865 0 1.236.256 1.447.89l.224.582a8.89 8.89 0 0 0-.47-.012c-1.236 0-3.636.257-5.775 1.966l.896-2.364C8.529.352 9 0 9.83 0z"/>
        <path fill="#0075A8" d="M122.07 14.683c0 .466.053.875.18 1.266.107.39.27.744.485 1.023.216.28.486.502.792.67.306.168.667.242 1.08.242.378 0 .738-.093 1.045-.26.305-.168.576-.391.792-.67.216-.28.378-.633.504-1.024.108-.39.162-.819.162-1.284 0-.93-.216-1.675-.648-2.251-.45-.577-1.062-.857-1.836-.857-.379 0-.739.075-1.044.224a2.355 2.355 0 0 0-.81.651c-.235.28-.397.614-.523 1.005-.126.39-.18.8-.18 1.265m5.059 3.294v-.149c-.198.428-.522.8-.973 1.117-.45.316-1.025.484-1.71.484-.63 0-1.206-.13-1.71-.373a3.624 3.624 0 0 1-1.278-1.004 4.65 4.65 0 0 1-.828-1.508 5.664 5.664 0 0 1-.288-1.86 5.5 5.5 0 0 1 .306-1.806c.198-.558.468-1.06.828-1.488a4.16 4.16 0 0 1 1.296-1.024 3.822 3.822 0 0 1 1.674-.372c.379 0 .72.037 1.026.13.288.093.54.205.757.335.216.15.396.317.54.484.144.186.252.372.324.558V5.714h1.674V17.53c0 .429.018.8.036 1.098.018.298.036.484.054.559h-1.638a5.242 5.242 0 0 1-.054-.484 8.124 8.124 0 0 1-.036-.726M137.846 18.083c-.249.46-.63.811-1.147 1.014a3.917 3.917 0 0 1-1.566.332 3.536 3.536 0 0 1-1.433-.277 3.068 3.068 0 0 1-1.089-.756 3.364 3.364 0 0 1-.669-1.124 3.741 3.741 0 0 1-.248-1.401v-5.585h1.796v5.327c0 .313.038.59.115.866.076.277.19.535.362.738.172.202.383.368.65.497.248.13.573.185.955.185.726 0 1.28-.203 1.643-.627s.535-.959.535-1.64v-5.346h1.796v7.226c0 .35.019.682.038.958.02.295.038.516.057.682h-1.72a4.964 4.964 0 0 1-.056-.48c-.02-.202-.02-.405-.02-.589M145.824 11.94c-.352 0-.704.057-1.019.19-.314.133-.61.342-.85.608-.26.266-.464.59-.612.989-.148.399-.222.874-.222 1.406 0 .514.074.97.222 1.37.148.398.352.74.592 1.007.241.285.537.494.87.627.334.133.685.21 1.037.21.426 0 .778-.058 1.074-.19.277-.134.518-.286.722-.476.185-.19.333-.4.444-.628.11-.209.185-.418.24-.589l1.537.684a4.85 4.85 0 0 1-.481.989 3.81 3.81 0 0 1-.815.932c-.333.285-.722.494-1.166.665a4.457 4.457 0 0 1-1.555.266 4.287 4.287 0 0 1-1.795-.38 4.132 4.132 0 0 1-1.426-1.027 4.904 4.904 0 0 1-.925-1.54c-.241-.589-.352-1.216-.352-1.92 0-.703.111-1.368.352-1.958.222-.589.537-1.102.944-1.54a4.3 4.3 0 0 1 1.425-.988 4.17 4.17 0 0 1 1.759-.361c.592 0 1.11.076 1.573.247.444.171.833.399 1.166.684.315.285.574.59.778.932.203.36.351.703.444 1.045l-1.574.685a3.441 3.441 0 0 0-.259-.685 2.402 2.402 0 0 0-.444-.627 3.259 3.259 0 0 0-.703-.456 2.529 2.529 0 0 0-.981-.171M153.29 15.076c0 .479.054.92.18 1.322.108.402.27.766.486 1.054.216.287.486.517.792.69a2.17 2.17 0 0 0 1.08.268c.378 0 .738-.096 1.044-.268.306-.173.576-.403.792-.69.216-.288.378-.652.504-1.054.108-.403.162-.843.162-1.322 0-.958-.216-1.725-.648-2.319-.45-.594-1.062-.881-1.836-.881s-1.404.287-1.854.881c-.468.594-.702 1.36-.702 2.319m5.058 3.43v-.154c-.198.441-.522.824-.972 1.15-.45.325-1.026.498-1.71.498-.63 0-1.206-.134-1.71-.383a3.693 3.693 0 0 1-1.278-1.054c-.36-.44-.63-.977-.828-1.571a5.993 5.993 0 0 1-.288-1.916c0-.652.108-1.265.306-1.859a4.84 4.84 0 0 1 .828-1.513 3.87 3.87 0 0 1 1.296-1.035 3.732 3.732 0 0 1 1.674-.383c.378 0 .72.038 1.026.134.288.096.54.21.756.345.216.153.396.325.54.498.144.192.252.383.324.575v-1.303h1.674v7.51c0 .403.018.767.036 1.093.018.326.036.517.054.613h-1.638a5.543 5.543 0 0 1-.054-.498 8.617 8.617 0 0 1-.036-.748M166.271 19.97c-.574-.076-1.11-.248-1.573-.533a4.137 4.137 0 0 1-1.24-1.047 4.498 4.498 0 0 1-.815-1.464 5.18 5.18 0 0 1-.296-1.789c0-.704.111-1.35.352-1.94.222-.59.536-1.104.944-1.542.389-.437.87-.76 1.425-1.008a4.168 4.168 0 0 1 1.759-.361c.592 0 1.11.076 1.573.247.444.171.833.4 1.166.685.315.285.574.59.777.932.204.362.352.704.445 1.046l-1.574.685a3.47 3.47 0 0 0-.259-.685 2.41 2.41 0 0 0-.444-.627 3.252 3.252 0 0 0-.703-.457 2.524 2.524 0 0 0-.981-.171c-.352 0-.704.076-1.018.209-.315.133-.611.343-.852.609-.26.266-.463.59-.61.99-.149.399-.223.875-.223 1.388 0 .514.074.97.222 1.37.148.4.352.742.593 1.008.24.286.536.495.87.628.333.133.684.21 1.036.21.407 0 .759-.058 1.055-.19a2.83 2.83 0 0 0 .722-.477c.185-.19.333-.4.463-.627.11-.21.185-.419.24-.59l1.537.685c-.093.285-.24.59-.407.894a4.1 4.1 0 0 1-.667.837 4.976 4.976 0 0 1-.944.666c-.37.19-.796.323-1.259.4-.612.098-1.314.018-1.314.018M174.86 15.076c0 .479.054.92.18 1.322.108.402.27.766.486 1.054.217.287.487.517.793.69a2.17 2.17 0 0 0 1.08.268c.378 0 .738-.096 1.044-.268a2.55 2.55 0 0 0 .792-.69c.216-.288.378-.652.504-1.054.108-.403.162-.843.162-1.322 0-.958-.216-1.725-.648-2.319-.45-.594-1.062-.881-1.836-.881s-1.404.287-1.854.881c-.468.594-.703 1.36-.703 2.319m5.059 3.43v-.154c-.198.441-.522.824-.972 1.15-.45.325-1.026.498-1.71.498-.63 0-1.206-.134-1.71-.383a3.693 3.693 0 0 1-1.279-1.054c-.36-.44-.63-.977-.828-1.571a5.993 5.993 0 0 1-.288-1.916c0-.652.108-1.265.306-1.859a4.844 4.844 0 0 1 .828-1.513c.36-.441.793-.786 1.297-1.035a3.73 3.73 0 0 1 1.674-.383c.378 0 .72.038 1.026.134.288.096.54.21.756.345.216.153.396.325.54.498.144.192.252.383.324.575v-1.303h1.674v7.51c0 .403.018.767.036 1.093.018.326.036.517.054.613h-1.638a5.477 5.477 0 0 1-.054-.498 8.514 8.514 0 0 1-.036-.748"/>
        <g transform="translate(183.35 9.714)">
            <mask id="c" fill="#fff">
                <use xlink:href="#b"/>
            </mask>
            <path fill="#0075A8" d="M4.872 8.422c.383 0 .747-.078 1.092-.214.345-.135.651-.349.92-.64.268-.29.478-.64.632-1.047.153-.408.23-.893.23-1.436 0-.543-.077-1.028-.23-1.436a3.086 3.086 0 0 0-.632-1.028 2.477 2.477 0 0 0-.92-.64 2.957 2.957 0 0 0-1.092-.214c-.383 0-.747.078-1.092.214-.345.136-.652.35-.92.64-.268.291-.479.62-.632 1.028-.153.408-.23.893-.23 1.436 0 .543.077 1.028.23 1.436.153.407.364.756.632 1.047.268.291.575.505.92.64.345.136.709.214 1.092.214m0-8.284c.69 0 1.322.116 1.896.368a4.537 4.537 0 0 1 1.495 1.048c.422.446.747.95.977 1.552a5.5 5.5 0 0 1 .345 1.979 5.5 5.5 0 0 1-.345 1.979 4.712 4.712 0 0 1-.977 1.571c-.422.446-.92.776-1.495 1.029a4.676 4.676 0 0 1-1.896.387c-.69 0-1.322-.135-1.897-.387a4.496 4.496 0 0 1-1.494-1.029 4.712 4.712 0 0 1-.977-1.571 5.495 5.495 0 0 1-.345-1.98c0-.717.115-1.377.345-1.978a4.62 4.62 0 0 1 .977-1.552A4.54 4.54 0 0 1 2.975.506C3.55.254 4.182.138 4.872.138" mask="url(#c)"/>
        </g>
        <path fill="#0075A8" d="M111.403 13.63h4.857c-.018-.665-.24-1.216-.646-1.672-.406-.438-.997-.666-1.791-.666-.37 0-.702.057-.98.19a2.406 2.406 0 0 0-.738.533c-.203.227-.37.475-.499.76-.13.285-.185.57-.203.855m5.116 2.377l1.496.532c-.13.4-.295.78-.535 1.122-.24.36-.536.665-.869.912a4.32 4.32 0 0 1-1.163.627 4.224 4.224 0 0 1-1.422.229c-.591 0-1.164-.115-1.7-.324a4.02 4.02 0 0 1-1.422-.95c-.425-.418-.739-.932-.979-1.54s-.37-1.293-.37-2.072c0-.723.112-1.388.352-1.977.24-.59.554-1.084.942-1.521a4.384 4.384 0 0 1 1.348-.989 3.944 3.944 0 0 1 1.607-.342c.683 0 1.293.114 1.828.342.536.248.98.57 1.33.989.351.418.628.913.832 1.502.184.59.277 1.254.277 1.958v.323c-.019.095-.019.19-.038.247h-6.686c.019.4.093.78.222 1.122.13.342.333.627.573.874.24.247.517.437.85.57.313.134.664.21 1.034.21.72 0 1.274-.171 1.662-.533.388-.36.665-.798.831-1.311"/>
        <path fill="#45D0C1" d="M178.182 6.286h-2.78V8h4.542c0-.947-.789-1.714-1.762-1.714"/>
        <path fill="#96DD48" d="M168.591 21.714h-4.541c0 .947.79 1.715 1.762 1.715h2.78v-1.715z"/>
    </g>
</svg>
