<?xml version="1.0" encoding="UTF-8"?>
<svg width="81px" height="19px" viewBox="0 0 81 19" version="1.1" xmlns="http://www.w3.org/2000/svg" xmlns:xlink="http://www.w3.org/1999/xlink">
    <!-- Generator: Sketch 62 (91390) - https://sketch.com -->
    <title>logo-arvore</title>
    <desc>Created with Sketch.</desc>
    <defs>
        <polygon id="path-1" points="0.164314193 0.085816371 15.1246474 0.085816371 15.1246474 15.2258301 0.164314193 15.2258301"></polygon>
    </defs>
    <g id="Page-1" stroke="none" stroke-width="1" fill="none" fill-rule="evenodd">
        <g id="Homepage---Leitura-2" transform="translate(-1009.000000, -174.000000)">
            <g id="Group" transform="translate(832.000000, 160.000000)">
                <g id="UI/brand/arvore_livros/horizontal/white" transform="translate(177.000000, 14.000000)">
                    <g id="Logo-Ãrvore">
                        <g id="Group-19">
                            <path d="M18.5573001,18.5280497 L21.1928669,18.5204786 C21.4749727,18.5199109 21.7031105,18.2901841 21.7031105,18.0072834 L21.7031105,9.84914585 C22.0854158,9.02731453 22.7134079,8.41098836 23.5872756,8.00016732 C24.3788703,7.62851715 24.8787354,7.41752431 25.7910978,7.36737803 C25.9588517,7.3581057 26.0901866,7.21807457 26.0901866,7.04984799 L26.0901866,4.30996875 C26.0901866,4.14666218 25.9682867,4.00871261 25.8063825,3.98922179 L25.8033633,3.98884332 C22.5114994,3.58597 21.4027008,6.09214865 21.4027008,6.09214865 L21.4027008,4.44867526 C21.4027008,4.30031796 21.2826879,4.18034535 21.1349361,4.18034535 L18.3116132,4.18034535 C18.1638615,4.18034535 18.0438486,4.30031796 18.0438486,4.44867526 L18.0438486,18.0144742 C18.0438486,18.2986995 18.2738733,18.5288047 18.5573001,18.5280497" id="Fill-1" fill="#FFFFFF"></path>
                            <path d="M58.0487597,18.5280497 L60.6843265,18.5204786 C60.9664324,18.5199109 61.1947588,18.2901841 61.1947588,18.0072834 L61.1947588,9.84914585 C61.5768754,9.02731453 62.2048676,8.41098836 63.0787353,8.00016732 C63.8703299,7.62851715 64.3701951,7.41752431 65.2825575,7.36737803 C65.4503114,7.3581057 65.5816463,7.21807457 65.5816463,7.04984799 L65.5816463,4.30996875 C65.5816463,4.14666218 65.4597464,4.00871261 65.2978421,3.98922179 L65.2948229,3.98884332 C62.0027704,3.58597 60.8941604,6.09214865 60.8941604,6.09214865 L60.8941604,4.48652151 C60.8941604,4.31715954 60.7573532,4.18034535 60.5886558,4.18034535 L57.8408128,4.18034535 C57.6721154,4.18034535 57.5353082,4.31715954 57.5353082,4.48652151 L57.5353082,18.0144742 C57.5353082,18.2986995 57.7655217,18.5288047 58.0487597,18.5280497" id="Fill-3" fill="#FFFFFF"></path>
                            <path d="M48.8019339,7.21112979 C51.0138702,7.21112979 52.8070821,9.00939434 52.8070821,11.2277523 C52.8070821,13.4457317 51.0138702,15.2439963 48.8019339,15.2439963 C46.5898089,15.2439963 44.796597,13.4457317 44.796597,11.2277523 C44.796597,9.00939434 46.5898089,7.21112979 48.8019339,7.21112979 M48.8019339,18.7975699 C52.9708734,18.7975699 56.3506712,15.4084382 56.3506712,11.2277523 C56.3506712,7.04687706 52.9708734,3.65755618 48.8019339,3.65755618 C44.6328058,3.65755618 41.2530079,7.04687706 41.2530079,11.2277523 C41.2530079,15.4084382 44.6328058,18.7975699 48.8019339,18.7975699" id="Fill-5" fill="#FFFFFF"></path>
                            <g id="Group-9" transform="translate(65.636463, 3.571740)">
                                <mask id="mask-2" fill="white">
                                    <use xlink:href="#path-1"></use>
                                </mask>
                                <g id="Clip-8"></g>
                                <path d="M7.71317011,3.63938998 C9.04255853,3.63938998 10.2170246,4.29148086 10.9455936,5.29118954 L3.72443875,7.98489636 C3.71575857,7.87608839 3.70783319,7.76690196 3.70783319,7.65601245 C3.70783319,5.43765453 5.50123384,3.63938998 7.71317011,3.63938998 M7.71317011,15.2258301 C11.3816783,15.2258301 14.439366,12.6013819 15.1203828,9.12255462 C15.1481216,8.98044195 15.0394306,8.84779085 14.8952642,8.84779085 L11.8298398,8.84722316 C11.6583119,8.84722316 11.5077296,8.95565266 11.4454588,9.1157423 C10.8629432,10.612183 9.41146618,11.6722565 7.71317011,11.6722565 C6.45963891,11.6722565 5.341594,11.094155 4.60717531,10.1900081 L11.7122799,7.539446 L14.6501434,6.37945845 C14.9280979,6.26970433 15.0794349,5.96750202 15.0016907,5.67797821 C14.1344275,2.45669468 11.2001493,0.0863840647 7.71411361,0.085816371 C3.63725955,0.0854379085 0.324638728,3.27587675 0.169905086,7.36100093 C0.00649126496,11.6762303 3.4464843,15.2258301 7.71317011,15.2258301" id="Fill-7" fill="#FFFFFF" mask="url(#mask-2)"></path>
                            </g>
                            <path d="M32.8494427,18.5180753 L35.9050547,18.5180753 C35.9590228,18.5180753 36.0111039,18.5095599 36.0614867,18.496503 L36.132249,18.496503 C36.394164,18.496503 36.6283401,18.3328179 36.7189159,18.0864388 L41.8675835,4.20821911 C41.4079114,4.14028509 40.8801187,4.15977591 40.3368527,4.28542546 C39.1361573,4.56340616 37.8616805,5.36271895 37.0821626,6.89189667 C36.9489407,7.15284656 36.8293052,7.43442266 36.7279735,7.7392742 L34.4873549,14.3057877 L32.2540956,7.76084656 C32.1640859,7.49043511 32.0604898,7.23762216 31.9451944,7.00165079 C31.1256722,5.32279116 29.7166526,4.49812138 28.4342503,4.2638531 C27.965898,4.17832057 27.5141513,4.17075132 27.1142969,4.2299807 L32.2631532,18.1080112 C32.3535403,18.3543903 32.5877164,18.5180753 32.8494427,18.5180753" id="Fill-10" fill="#FFFFFF"></path>
                            <path d="M10.9346869,1.51701015 L10.7586302,1.05263666 C10.592952,0.548146156 10.3015998,0.344722565 9.62114923,0.344722565 L7.95172419,0.341884096 C7.2999559,0.341884096 6.92859516,0.622703268 6.72838493,1.19020778 L6.02453556,3.07268024 C7.70622606,1.71153987 9.59303299,1.50717012 10.5652131,1.50717012 C10.7031525,1.50717012 10.8258072,1.51133321 10.9346869,1.51701015" id="Fill-12" fill="#FFFFFF"></path>
                            <path d="M8.7498856,5.60378064 L10.7263248,11.5117694 L6.61909014,11.5117694 L8.7498856,5.60378064 Z M0.868848362,18.444067 L4.06239976,18.444067 C4.24336264,18.444067 4.40545557,18.3309067 4.46772642,18.1604093 L6.02959271,13.895137 L11.3667711,13.895137 L12.9535458,18.1624909 C13.0165714,18.3320421 13.1779095,18.444067 13.3581176,18.444067 L16.6062032,18.444067 C16.9084999,18.444067 17.1172016,18.1405401 17.0094542,17.8570716 L11.2560045,2.65215163 C11.2560045,2.65215163 10.9927686,2.60806075 10.5651754,2.60806075 C9.30088833,2.60806075 6.60116368,2.9971202 5.03080592,6.05982795 C4.98514063,6.14933433 4.94041883,6.24111148 4.89626313,6.33515941 C4.87814797,6.37414105 4.85984412,6.412555 4.84210636,6.45210433 C4.78304339,6.58418774 4.72530133,6.71929885 4.67020106,6.86027613 L0.465786096,17.856504 C0.357472547,18.1399724 0.566174264,18.444067 0.868848362,18.444067 L0.868848362,18.444067 Z" id="Fill-14" fill="#FFFFFF"></path>
                        </g>
                    </g>
                </g>
            </g>
        </g>
    </g>
</svg>