<svg xmlns="http://www.w3.org/2000/svg" width="185" height="23" viewBox="0 0 185 23">
    <path fill="#FFF" fill-rule="evenodd" d="M59.676 4.381c5.093 0 9.222 4.168 9.222 9.31 0 5.141-4.129 9.309-9.222 9.309-5.094 0-9.223-4.168-9.223-9.31 0-5.14 4.13-9.309 9.223-9.309zm30.5-.396c4.279 0 7.881 2.975 8.945 7.018a.744.744 0 0 1-.431.88l-3.606 1.456-8.722 3.326c.901 1.134 2.273 1.86 3.812 1.86 2.085 0 3.867-1.33 4.582-3.208a.51.51 0 0 1 .472-.337h3.763c.177 0 .31.167.276.345-.836 4.366-4.59 7.66-9.093 7.66-5.238 0-9.46-4.455-9.26-9.87.19-5.127 4.257-9.13 9.261-9.13zm70.949 16.825v1.642h-2.656c-.93 0-1.684-.735-1.684-1.642h4.34zM49.138 5.07c.66-.154 1.3-.177 1.858-.094l-6.248 16.95a.758.758 0 0 1-.712.5h-.086a.748.748 0 0 1-.19.026h-3.707a.758.758 0 0 1-.712-.5l-6.248-16.95a4.921 4.921 0 0 1 1.602.042c1.556.286 3.266 1.293 4.26 3.343.14.288.266.597.375.928l2.71 7.993 2.719-8.02c.123-.372.268-.716.43-1.035.946-1.867 2.492-2.843 3.95-3.183zm30.786-.635h.004a.405.405 0 0 1 .363.398v3.395a.4.4 0 0 1-.383.394c-1.169.062-1.81.324-2.823.784-1.12.51-1.924 1.273-2.414 2.291v10.11c0 .35-.292.635-.654.636l-3.376.01a.646.646 0 0 1-.657-.637V5.052c0-.21.175-.38.39-.38h3.52c.217 0 .392.17.392.38v1.99s1.42-3.106 5.638-2.607zM12.577 2.738c.531 0 .858.055.858.055l7.145 18.929a.539.539 0 0 1-.501.73h-4.034a.536.536 0 0 1-.502-.35l-1.97-5.313H6.945l-1.94 5.31a.536.536 0 0 1-.503.353H.537a.539.539 0 0 1-.501-.731L5.257 8.03c.068-.175.14-.343.213-.507a10.13 10.13 0 0 1 .234-.488c1.95-3.814 5.303-4.298 6.873-4.298zm18.521 1.697h.004a.405.405 0 0 1 .363.398v3.395a.4.4 0 0 1-.383.394c-1.169.062-1.809.324-2.823.784-1.12.51-1.924 1.273-2.413 2.291v10.11c0 .35-.293.635-.654.636l-3.377.01a.646.646 0 0 1-.657-.637V5.005c0-.184.153-.333.343-.333h3.617c.189 0 .343.15.343.333v2.037s1.42-3.106 5.637-2.607zm128.34 5.422c.566 0 1.062.073 1.504.237.425.164.796.383 1.114.657.301.273.549.565.743.893.195.346.336.674.425 1.003l-1.504.656a3.331 3.331 0 0 0-.247-.656 2.31 2.31 0 0 0-.425-.602 3.107 3.107 0 0 0-.672-.438 2.406 2.406 0 0 0-.938-.164c-.336 0-.672.073-.973.2-.3.129-.583.33-.813.584a2.649 2.649 0 0 0-.584.948 3.876 3.876 0 0 0-.212 1.331c0 .493.07.93.212 1.313.141.383.336.711.566.967.23.273.513.473.831.601.319.128.655.2.991.2.39 0 .725-.054 1.008-.182.266-.127.496-.273.69-.456.177-.182.319-.382.443-.601.106-.2.176-.401.23-.565l1.468.656c-.089.274-.23.565-.39.857-.176.292-.389.565-.636.802a4.756 4.756 0 0 1-.902.638 4.07 4.07 0 0 1-1.204.383c-.584.095-1.255.018-1.255.018a3.793 3.793 0 0 1-1.504-.51 3.957 3.957 0 0 1-1.185-1.003 4.314 4.314 0 0 1-.779-1.404 4.976 4.976 0 0 1-.283-1.714c0-.674.106-1.294.336-1.86a4.436 4.436 0 0 1 .902-1.476c.372-.42.832-.73 1.363-.967a3.974 3.974 0 0 1 1.68-.346zm-10.666 0c.362 0 .688.037.98.129.276.092.517.202.723.33.207.147.379.312.516.478.138.183.241.367.31.55v-1.248h1.6v7.198c0 .385.017.734.034 1.046.018.313.035.496.052.588h-1.565a5.326 5.326 0 0 1-.052-.477 8.28 8.28 0 0 1-.034-.717v-.147c-.19.423-.5.79-.93 1.102-.43.312-.98.478-1.634.478a3.654 3.654 0 0 1-1.634-.368 3.532 3.532 0 0 1-1.222-1.01c-.344-.422-.602-.936-.791-1.505a5.758 5.758 0 0 1-.275-1.836c0-.625.103-1.212.292-1.781.19-.551.447-1.029.792-1.451a3.701 3.701 0 0 1 1.238-.992 3.559 3.559 0 0 1 1.6-.367zm-9.406 0c.566 0 1.06.073 1.503.237.425.164.796.383 1.115.656.3.273.548.565.743.893.194.346.336.674.424 1.001l-1.503.656a3.303 3.303 0 0 0-.248-.656 2.302 2.302 0 0 0-.424-.6 3.114 3.114 0 0 0-.673-.438 2.41 2.41 0 0 0-.937-.164c-.337 0-.673.055-.974.182-.3.128-.583.328-.813.583a2.653 2.653 0 0 0-.584.948c-.142.382-.212.838-.212 1.348 0 .492.07.929.212 1.312.142.382.336.71.566.965.23.274.513.474.831.601.32.128.655.2.991.2.407 0 .743-.054 1.026-.181.266-.128.496-.274.69-.456.177-.182.319-.383.425-.601.106-.2.177-.401.23-.565l1.468.656c-.106.31-.265.638-.46.947-.194.328-.46.62-.778.893-.319.273-.69.474-1.115.638a4.25 4.25 0 0 1-1.486.255 4.088 4.088 0 0 1-1.716-.365 3.95 3.95 0 0 1-1.362-.983 4.702 4.702 0 0 1-.885-1.476c-.23-.565-.336-1.166-.336-1.84 0-.674.106-1.312.336-1.877a4.436 4.436 0 0 1 .903-1.475c.371-.401.831-.71 1.362-.948a3.975 3.975 0 0 1 1.68-.346zm30.021 0c.362 0 .689.037.98.129.276.092.517.202.724.33.206.147.378.312.516.478.137.183.24.367.31.55v-1.248h1.6v7.198c0 .385.016.734.034 1.046.017.313.034.496.052.588h-1.566a5.262 5.262 0 0 1-.052-.477 8.181 8.181 0 0 1-.034-.717v-.147c-.19.423-.499.79-.93 1.102-.43.312-.98.478-1.634.478a3.654 3.654 0 0 1-1.634-.368 3.532 3.532 0 0 1-1.221-1.01c-.344-.422-.603-.936-.792-1.505a5.758 5.758 0 0 1-.275-1.836c0-.625.103-1.212.292-1.781.19-.551.448-1.029.792-1.451a3.703 3.703 0 0 1 1.239-.992 3.557 3.557 0 0 1 1.6-.367zm10.499-.416c.66 0 1.264.112 1.813.354.55.241 1.025.576 1.428 1.004.403.427.714.91.934 1.487.22.576.33 1.208.33 1.897 0 .688-.11 1.32-.33 1.896a4.518 4.518 0 0 1-.934 1.506 4.294 4.294 0 0 1-1.428.985 4.459 4.459 0 0 1-1.813.372c-.66 0-1.263-.13-1.813-.372a4.296 4.296 0 0 1-1.428-.985 4.517 4.517 0 0 1-.934-1.506 5.28 5.28 0 0 1-.33-1.896c0-.689.11-1.32.33-1.897a4.43 4.43 0 0 1 2.362-2.491c.55-.242 1.154-.354 1.813-.354zm-120.21-.69c-2.703 0-4.893 2.212-4.893 4.94 0 2.727 2.19 4.939 4.893 4.939 2.702 0 4.893-2.212 4.893-4.94 0-2.727-2.19-4.939-4.893-4.939zm63.387-3.275V16.8c0 .41.017.767.035 1.052.017.285.034.464.051.535h-1.565a5.037 5.037 0 0 1-.052-.464 7.807 7.807 0 0 1-.034-.695v-.143c-.19.41-.5.767-.93 1.07-.43.303-.98.464-1.634.464a3.744 3.744 0 0 1-1.634-.357 3.465 3.465 0 0 1-1.222-.963 4.46 4.46 0 0 1-.791-1.444 5.442 5.442 0 0 1-.275-1.783c0-.607.103-1.177.292-1.73.19-.535.447-1.017.791-1.427.345-.41.758-.731 1.24-.98a3.644 3.644 0 0 1 1.6-.357c.36 0 .687.035.98.124.275.09.516.197.723.322.206.142.378.303.515.463.138.179.241.357.31.535V5.476h1.6zm4.515 4.381v5.105c0 .3.037.566.11.83.073.266.182.513.346.707.165.195.366.354.621.477.238.124.548.177.913.177.694 0 1.223-.194 1.57-.6.347-.407.511-.92.511-1.573V9.857h1.717v6.925c0 .335.018.654.036.919.019.282.037.494.055.653h-1.643a4.77 4.77 0 0 1-.055-.46c-.018-.193-.018-.388-.018-.564a2.082 2.082 0 0 1-1.096.971 3.734 3.734 0 0 1-1.497.318c-.51 0-.967-.088-1.37-.265a2.932 2.932 0 0 1-1.04-.724 3.226 3.226 0 0 1-.639-1.078 3.594 3.594 0 0 1-.237-1.342V9.857h1.716zm-18.814-.547c.653 0 1.236.109 1.747.327.512.237.936.547 1.271.948.336.4.6.874.795 1.439a6.33 6.33 0 0 1 .265 1.876v.31c-.018.091-.018.182-.036.237h-6.39c.018.383.088.747.212 1.075.124.328.318.601.547.838.23.237.494.419.812.547.3.127.636.2.989.2.688 0 1.218-.164 1.589-.51.37-.346.635-.765.794-1.257l1.43.51a4.002 4.002 0 0 1-.512 1.075c-.23.346-.512.637-.83.874a4.125 4.125 0 0 1-1.112.601 4.027 4.027 0 0 1-1.36.219c-.564 0-1.111-.11-1.623-.31s-.971-.51-1.36-.91c-.405-.401-.706-.893-.935-1.476-.23-.583-.353-1.24-.353-1.986 0-.692.106-1.33.335-1.895.23-.564.53-1.038.9-1.457.371-.4.795-.71 1.29-.948a3.76 3.76 0 0 1 1.535-.327zm40.18 2.071c-.74 0-1.342.276-1.772.845-.447.57-.67 1.303-.67 2.222 0 .459.05.88.171 1.267.103.385.258.734.465 1.01.206.275.464.495.757.66a2.07 2.07 0 0 0 1.032.258c.361 0 .705-.092.998-.257.292-.166.55-.386.757-.662.206-.275.361-.624.481-1.01a4.89 4.89 0 0 0 .155-1.266c0-.919-.206-1.653-.619-2.222-.43-.57-1.015-.845-1.755-.845zm20.616 0c-.74 0-1.342.276-1.772.845-.448.57-.672 1.303-.672 2.222 0 .459.052.88.172 1.267.104.385.259.734.465 1.01.207.275.465.495.757.66a2.07 2.07 0 0 0 1.032.258c.361 0 .706-.092.998-.257.292-.166.55-.386.757-.662.207-.275.361-.624.482-1.01a4.89 4.89 0 0 0 .155-1.266c0-.919-.207-1.653-.62-2.222-.43-.57-1.015-.845-1.754-.845zm10.326-.378c-.366 0-.714.075-1.044.205-.33.13-.622.335-.878.613a2.954 2.954 0 0 0-.605.986c-.146.39-.22.855-.22 1.376 0 .52.074.985.22 1.375.147.39.348.726.605 1.004.256.28.549.484.878.614.33.13.678.204 1.044.204s.714-.074 1.044-.204c.33-.13.622-.335.879-.614a3.04 3.04 0 0 0 .604-1.004c.146-.39.22-.855.22-1.375s-.074-.986-.22-1.376a2.958 2.958 0 0 0-.604-.986 2.367 2.367 0 0 0-.88-.613 2.82 2.82 0 0 0-1.043-.205zm-60.78.055a2.28 2.28 0 0 0-.997.214c-.31.16-.568.357-.775.624-.224.267-.378.588-.499.963-.12.374-.172.767-.172 1.213 0 .445.052.838.172 1.212.103.375.258.714.465.981.206.267.464.481.757.642.292.16.636.232 1.032.232.361 0 .705-.09.998-.25.292-.16.55-.374.757-.642.206-.267.361-.606.482-.98.103-.375.154-.785.154-1.231 0-.892-.206-1.605-.619-2.158-.43-.553-1.015-.82-1.755-.82zM90.174 8.445c-2.715 0-4.916 2.256-4.916 5.04 0 .14.01.276.02.413l8.864-3.38c-.894-1.255-2.336-2.073-3.968-2.073zM10.323 6.467l-2.646 7.219h5.1l-2.454-7.219zm98.459 4.355c-.354 0-.671.054-.936.182a2.3 2.3 0 0 0-.706.51 2.844 2.844 0 0 0-.477.728 2.31 2.31 0 0 0-.194.82h4.643c-.018-.637-.23-1.165-.618-1.603-.388-.419-.953-.637-1.712-.637zm61.509-4.798c.93 0 1.684.735 1.684 1.643h-4.34V6.024zM9.395 0l2.029.003c.827 0 1.181.245 1.382.852l.214.559a8.473 8.473 0 0 0-.449-.012c-1.181 0-3.474.246-5.518 1.884l.855-2.265C8.151.338 8.603 0 9.395 0z"/>
</svg>
