<?xml version="1.0" encoding="UTF-8"?>
<svg width="117px" height="22px" viewBox="0 0 117 22" version="1.1" xmlns="http://www.w3.org/2000/svg" xmlns:xlink="http://www.w3.org/1999/xlink">
    <!-- Generator: Sketch 62 (91390) - https://sketch.com -->
    <title>brand news</title>
    <desc>Created with Sketch.</desc>
    <g id="Page-1" stroke="none" stroke-width="1" fill="none" fill-rule="evenodd">
        <g id="Homepage---Preview-Notícia" transform="translate(-867.000000, -489.000000)" fill="#FFFFFF">
            <g id="Preview-Modal---Arvore" transform="translate(281.000000, 112.000000)">
                <g id="Elements/button/primary/arvore/large/text/center-Copy" transform="translate(381.000000, 364.000000)">
                    <g id="Group-8" transform="translate(86.000000, 13.000000)">
                        <g id="brand-news" transform="translate(119.000000, 0.000000)">
                            <g id="Page-2">
                                <g id="Page-1">
                                    <path d="M108.414406,0 C112.798199,0 116.384534,3.55319256 116.384534,7.89647389 L116.384534,14.1035261 C116.384534,18.4468074 112.798199,22 108.414406,22 L67.9701279,22 C63.5863348,22 60,18.4468074 60,14.1035261 L60,7.89647389 C60,3.55319256 63.5863348,0 67.9701279,0 L108.414406,0 Z M106.049207,5.63114812 C105.403222,5.63114812 104.816266,5.71170186 104.286112,5.87170587 C103.754844,6.03060641 103.294858,6.26012941 102.906152,6.56027487 C102.516333,6.85931685 102.214502,7.22125696 101.999545,7.64719868 C101.784587,8.07424387 101.677666,8.54653157 101.677666,9.06406179 C101.677666,9.8894618 101.912671,10.5416161 102.382681,11.0194212 C102.851578,11.4983297 103.442989,11.8382003 104.155801,12.0379295 L104.155801,12.0379295 L105.524622,12.4164217 C105.752945,12.4837338 105.954537,12.5609771 106.129399,12.6459447 C106.303147,12.7331193 106.391134,12.862226 106.391134,13.0354717 C106.391134,13.1689923 106.347697,13.274926 106.25971,13.3554798 C106.172836,13.4338266 106.061459,13.4978282 105.927807,13.5441741 C105.794154,13.5916236 105.638227,13.6214175 105.464479,13.6346592 C105.289617,13.6479009 105.121438,13.6545217 104.961055,13.6545217 C104.491045,13.6545217 104.021035,13.6048653 103.551024,13.504449 C103.0799,13.4051362 102.631052,13.2550634 102.201137,13.0553343 C101.771222,13.986668 101.522852,14.90476 101.456026,15.8096103 C102.074167,16.0358228 102.657782,16.1947234 103.209097,16.2885188 C103.758185,16.3812108 104.356279,16.4286603 105.001151,16.4286603 C105.779675,16.4286603 106.467984,16.3348648 107.066078,16.1483774 C107.663058,15.96189 108.166481,15.7102974 108.576348,15.3902894 C108.986215,15.0713849 109.294729,14.6917891 109.503004,14.2526057 C109.711278,13.8145258 109.814859,13.342238 109.814859,12.8357426 C109.814859,12.3435923 109.748033,11.9253749 109.614381,11.5788835 C109.479615,11.2334955 109.294729,10.9399709 109.059724,10.7005166 C108.824719,10.4610623 108.542935,10.2657471 108.214373,10.1112605 C107.884698,9.95898079 107.519382,9.8298741 107.116198,9.72283694 L107.116198,9.72283694 L105.806406,9.38406982 C105.618179,9.33110297 105.451114,9.26379094 105.304096,9.1832372 C105.154851,9.1048904 105.081342,8.99123238 105.081342,8.84447008 C105.081342,8.49908211 105.396539,8.32583638 106.028046,8.32583638 C106.45796,8.32583638 106.927971,8.38542409 107.438077,8.50570296 C107.948183,8.62487837 108.38478,8.75839896 108.747869,8.90405778 C108.934982,8.53218639 109.103161,8.10293424 109.251292,7.61740483 C109.398309,7.13187541 109.486297,6.67613984 109.513028,6.2513016 C108.92273,6.05157245 108.324637,5.8981893 107.71986,5.79115213 C107.116198,5.68521844 106.5582,5.63114812 106.049207,5.63114812 Z M81.7161483,5.63147916 C80.856319,5.63147916 80.105639,5.77493103 79.460767,6.0607313 C78.815895,6.34763505 78.2779447,6.73716206 77.8491438,7.22820886 C77.4192292,7.72146261 77.0962363,8.299684 76.8823927,8.96508 C76.6674354,9.62937252 76.5605136,10.3411145 76.5605136,11.100306 C76.5605136,11.8716357 76.6640941,12.5833776 76.8723688,13.2355319 C77.0806435,13.8865827 77.4025226,14.4493555 77.8391199,14.9216432 C78.2757172,15.3939309 78.8392841,15.7635953 79.5309344,16.029533 C80.2225847,16.2943673 81.0512285,16.4278878 82.0179796,16.4278878 C83.2665142,16.4278878 84.4894321,16.2082961 85.6845058,15.7702162 C85.6711406,15.250479 85.5931768,14.7517079 85.4528419,14.2739028 C85.3113933,13.7938908 85.1476693,13.3811908 84.9594424,13.0358028 C84.4894321,13.2222902 84.0127392,13.3613282 83.5293636,13.4551236 C83.045988,13.5478156 82.6093907,13.5941616 82.2206855,13.5941616 C81.6159092,13.5941616 81.1291923,13.4816071 80.7605349,13.254291 C80.3907637,13.0291819 80.1323694,12.6429653 79.9842382,12.0978482 L79.9842382,12.0978482 L86.1077378,12.0978482 C86.1344683,11.9124643 86.16454,11.6752169 86.1979531,11.3894167 C86.2313662,11.1036164 86.2480727,10.7802979 86.2480727,10.4205648 C86.2480727,9.72978883 86.1444922,9.08646236 85.9362175,8.49499925 C85.7279428,7.90353614 85.4294528,7.39814415 85.0407476,6.97882329 C84.6498148,6.56060591 84.1764631,6.2306666 83.6195788,5.99121232 C83.0626946,5.75175804 82.4278465,5.63147916 81.7161483,5.63147916 Z M70.7588931,5.67153534 C69.7520463,5.67153534 68.9122648,5.74767518 68.2417761,5.90105833 C67.5701736,6.05444149 66.9988104,6.2100316 66.5288,6.37003561 L66.5288,6.37003561 L66.5288,16.168902 C66.8785234,16.2351106 67.1937199,16.2781462 67.4755033,16.2980087 C67.7572868,16.3189748 68.0134535,16.3289061 68.2417761,16.3289061 C68.4567334,16.3289061 68.7051038,16.3189748 68.9868873,16.2980087 C69.2686707,16.2781462 69.5838672,16.2351106 69.9324768,16.168902 L69.9324768,16.168902 L69.9324768,8.70499072 C69.9736862,8.67961077 70.0772667,8.65202388 70.2454458,8.62554045 C70.4125111,8.59905703 70.5706662,8.58471184 70.7187974,8.58471184 C71.2689991,8.58471184 71.6788659,8.738095 71.9472842,9.04375784 C72.2157024,9.35052415 72.3504684,9.85591614 72.3504684,10.5610373 L72.3504684,10.5610373 L72.3504684,16.168902 C72.6990779,16.2351106 73.0153882,16.2781462 73.2971717,16.2980087 C73.5789551,16.3189748 73.8340081,16.3289061 74.0623307,16.3289061 C74.277288,16.3289061 74.5256584,16.3189748 74.8074419,16.2980087 C75.0903391,16.2781462 75.4044218,16.2351106 75.7541452,16.168902 L75.7541452,16.168902 L75.7541452,10.2013041 C75.7541452,9.21700356 75.6037864,8.42581131 75.3019551,7.82772734 C74.9990101,7.2285399 74.6103048,6.76949391 74.1324981,6.45058936 C73.6558052,6.13058133 73.12231,5.92202438 72.5320127,5.82160807 C71.9406015,5.72119175 71.3491904,5.67153534 70.7588931,5.67153534 Z M94.0431162,5.71103978 C93.774698,5.71103978 93.5029384,5.72097106 93.2267238,5.7419371 C92.951623,5.76179967 92.6999113,5.80483523 92.4727025,5.87214726 L92.4727025,5.87214726 L91.0225758,11.9787832 L89.712784,5.87214726 C89.6047484,5.84456037 89.3864498,5.81807694 89.0578881,5.79159352 C88.7282126,5.76400662 88.3896269,5.75186839 88.0410173,5.75186839 C87.5977375,5.75186839 87.1912119,5.76400662 86.8225545,5.79159352 C86.4527834,5.81807694 86.194389,5.84456037 86.0462578,5.87214726 L86.0462578,5.87214726 L89.2093606,16.1488188 C89.4376831,16.2150273 89.6860535,16.2591664 89.9544718,16.2779255 C90.22289,16.297788 90.4913082,16.3088228 90.7597264,16.3088228 C91.0281447,16.3088228 91.301018,16.297788 91.5761188,16.2779255 C91.8512196,16.2591664 92.1296618,16.2150273 92.4114452,16.1488188 C92.653133,15.2847971 92.9048447,14.3600843 93.1676941,13.3746802 C93.4294297,12.3903797 93.687824,11.4524251 93.942877,10.5608166 L93.942877,10.5608166 L95.4130516,16.1488188 C95.7082002,16.2150273 95.993325,16.2591664 96.2684258,16.2779255 C96.5446404,16.297788 96.8164,16.3088228 97.0848182,16.3088228 C97.3532364,16.3088228 97.6216546,16.297788 97.8900729,16.2779255 C98.1596049,16.2591664 98.4068615,16.2150273 98.6351841,16.1488188 L98.6351841,16.1488188 L101.898526,5.87214726 C101.750395,5.84456037 101.506479,5.81807694 101.163439,5.79159352 C100.821512,5.76400662 100.428351,5.75186839 99.9850716,5.75186839 C99.636462,5.75186839 99.3067865,5.76400662 98.9982726,5.79159352 C98.6886449,5.81807694 98.481484,5.84456037 98.3745622,5.87214726 L98.3745622,5.87214726 L97.1249139,11.8176757 L95.694835,5.87214726 C95.4130516,5.80483523 95.1346094,5.76179967 94.8583948,5.7419371 C94.583294,5.72097106 94.3126482,5.71103978 94.0431162,5.71103978 Z M81.5958613,8.16616341 C82.0926021,8.16616341 82.4712834,8.322857 82.7341328,8.63514069 C82.9958684,8.94742439 83.1395446,9.33805487 83.166275,9.80261825 L83.166275,9.80261825 L79.9441425,9.80261825 C79.9976034,9.24425942 80.1791477,8.83155941 80.4876616,8.56562171 C80.7961755,8.299684 81.1659467,8.16616341 81.5958613,8.16616341 Z" id="Combined-Shape"></path>
                                    <g id="Group-5" transform="translate(0.000000, 5.000000)">
                                        <g id="Group-6">
                                            <path d="M5.82977874,11.7690301 C4.77801454,11.7690301 3.88251244,11.6130211 3.14567649,11.3021941 C2.4064365,10.9913671 1.80422637,10.5674038 1.33664205,10.0314952 C0.869057738,9.49558655 0.528887144,8.86678708 0.318534302,8.14271496 C0.105777429,7.41864284 -6.29799243e-14,6.64455258 -6.29799243e-14,5.81925328 C-6.29799243e-14,5.02253577 0.127413721,4.26988186 0.383443179,3.56010064 C0.639472637,2.85151032 1.01930977,2.23581084 1.52295457,1.71538401 C2.02659937,1.19376627 2.65164782,0.780521161 3.39689788,0.476839598 C4.14214795,0.173158036 5.00399359,0.0207218007 5.98363682,0.0207218007 C6.49449372,0.0207218007 7.05703732,0.079076297 7.67126762,0.194594382 C8.2842959,0.310112466 8.95742499,0.513757749 9.68704884,0.803148414 C9.67262465,1.04966639 9.64377626,1.28070256 9.59930166,1.49744783 C9.55602907,1.71538401 9.50193834,1.93570201 9.43582745,2.15959273 C9.36971656,2.38467435 9.28918147,2.62285597 9.19422219,2.87651939 C9.0992629,3.13018282 8.98627338,3.41600076 8.85525361,3.73397322 C8.35761889,3.53151884 7.89724667,3.38265533 7.47413695,3.28857359 C7.04982522,3.19449185 6.68441229,3.14804644 6.37789815,3.14804644 C5.89588964,3.14804644 5.4860021,3.22069183 5.15063957,3.36479171 C4.81407502,3.5100825 4.54362137,3.70539142 4.33927861,3.9519094 C4.13493585,4.19842737 3.98468382,4.4830544 3.89092655,4.80936322 C3.79476526,5.13448113 3.74788662,5.47150812 3.74788662,5.81925328 C3.74788662,6.78865246 3.95944148,7.50200641 4.38375321,7.9581242 C4.80686293,8.414242 5.42830532,8.64170545 6.24687838,8.64170545 L6.6411397,8.64170545 L6.6411397,5.45007177 C7.00655264,5.37742638 7.33109702,5.32740824 7.61597487,5.29763554 C7.90085272,5.26905374 8.17491242,5.25476285 8.43815397,5.25476285 C8.94901087,5.25476285 9.55602907,5.31907188 10.2580066,5.45007177 L10.2580066,10.9651671 C9.83369482,11.1247488 9.24110082,11.2986214 8.48262858,11.4867849 C7.7217523,11.6749483 6.83827036,11.7690301 5.82977874,11.7690301" id="Fill-4"></path>
                                            <path d="M21.4612787,10.9654053 C21.2124613,11.0523416 20.9167653,11.1392779 20.5741907,11.2262142 C20.2304141,11.3131505 19.8650011,11.396514 19.4779519,11.4763049 C19.0897006,11.5549048 18.6918333,11.616832 18.2831478,11.6597047 C17.8744622,11.7037683 17.4729888,11.7252047 17.0775255,11.7252047 C16.3322754,11.7252047 15.6170757,11.6668502 14.9295225,11.5513321 C14.2431712,11.435814 13.639759,11.2012051 13.12169,10.8463145 C12.602419,10.4914239 12.1901275,9.97695159 11.8836133,9.30408853 C11.5758972,8.63122546 11.4232411,7.72970803 11.4232411,6.60072717 L11.4232411,0.260332508 C11.7441794,0.187687115 12.0627137,0.137668975 12.37644,0.107896273 C12.6913682,0.0793144786 12.9942763,0.0650235816 13.2863663,0.0650235816 C13.564032,0.0650235816 13.8633341,0.0793144786 14.1842724,0.107896273 C14.5064127,0.137668975 14.820139,0.187687115 15.1266531,0.260332508 L15.1266531,6.2970456 C15.1266531,7.1652176 15.2732991,7.75948074 15.565389,8.07745319 C15.857479,8.39542565 16.303427,8.55500734 16.9032331,8.55500734 C17.1508485,8.55500734 17.340767,8.54786189 17.4729888,8.53357099 C17.6040086,8.5192801 17.6989679,8.5049892 17.7566646,8.48950739 L17.7566646,0.260332508 C18.078805,0.187687115 18.3961373,0.137668975 18.7110655,0.107896273 C19.0247918,0.0793144786 19.3276999,0.0650235816 19.6197898,0.0650235816 C19.8974556,0.0650235816 20.1967576,0.0793144786 20.5188979,0.107896273 C20.8398363,0.137668975 21.1547645,0.187687115 21.4612787,0.260332508 L21.4612787,10.9654053 Z" id="Fill-6"></path>
                                            <path d="M25.9618679,3.32156175 L22.7188281,3.32156175 C22.6455051,3.03217108 22.5974244,2.76064404 22.5757881,2.50698062 C22.5541518,2.2545081 22.5433337,2.01156285 22.5433337,1.78052668 C22.5433337,1.5482996 22.5541518,1.31011799 22.5757881,1.06360001 C22.5974244,0.817082039 22.6455051,0.549127719 22.7188281,0.259737054 L32.9095217,0.259737054 C32.9828447,0.549127719 33.0297233,0.817082039 33.0525616,1.06360001 C33.0741979,1.31011799 33.0850161,1.5482996 33.0850161,1.78052668 C33.0850161,2.01156285 33.0741979,2.2545081 33.0525616,2.50698062 C33.0297233,2.76064404 32.9828447,3.03217108 32.9095217,3.32156175 L29.6664819,3.32156175 L29.6664819,11.4649913 C29.2854428,11.5221548 28.9428681,11.5662184 28.636354,11.5948002 C28.3286378,11.6245729 28.0509721,11.6388638 27.8033567,11.6388638 C27.5545394,11.6388638 27.2768736,11.6245729 26.9703595,11.5948002 C26.6626433,11.5662184 26.3272808,11.5221548 25.9618679,11.4649913 L25.9618679,3.32156175 Z" id="Fill-8"></path>
                                            <path d="M39.353651,2.75695222 C38.8860666,2.75695222 38.4845932,2.90224301 38.1480287,3.19163367 C37.8114641,3.48102434 37.6143335,3.92999669 37.5554347,4.53855072 L41.062918,4.53855072 C41.0328676,4.03122388 40.8766055,3.6072606 40.5917277,3.26785179 C40.3068498,2.92725208 39.8933562,2.75695222 39.353651,2.75695222 L39.353651,2.75695222 Z M37.5999093,7.03469407 C37.7609794,7.62895721 38.0422512,8.04815686 38.4437247,8.29467483 C38.8464001,8.5411928 39.3752872,8.66385634 40.0327901,8.66385634 C40.4558998,8.66385634 40.9318983,8.61264729 41.4571794,8.5114201 C41.9836625,8.41019291 42.5029335,8.25894759 43.0137904,8.0553023 C43.2181331,8.43282017 43.3972336,8.88060161 43.5510916,9.40221935 C43.7037477,9.92383709 43.7878888,10.4657003 43.8035151,11.0301907 C42.5029335,11.5089358 41.1723015,11.7471174 39.8140232,11.7471174 C38.762259,11.7471174 37.8595448,11.6018266 37.1070826,11.3124359 C36.3546204,11.0230453 35.7403901,10.6217092 35.2655937,10.1072369 C34.7907973,9.59395555 34.4398086,8.9830197 34.2138295,8.27323848 C33.9878505,7.56345726 33.8736589,6.78936701 33.8736589,5.94977681 C33.8736589,5.1244775 33.9914565,4.34919634 34.2246477,3.62512422 C34.4578388,2.90224301 34.8088276,2.27225263 35.2764119,1.73634399 C35.7451982,1.20162626 36.3293781,0.777662981 37.0301536,0.46683597 C37.732131,0.154818051 38.5507041,-1.95399252e-14 39.4846707,-1.95399252e-14 C40.2587692,-1.95399252e-14 40.9499285,0.129808982 41.5569467,0.390617853 C42.1627629,0.650235816 42.6772258,1.00869915 43.1015376,1.46600786 C43.5246473,1.92093475 43.8503937,2.47113428 44.0763727,3.11541556 C44.3035538,3.75969683 44.4165433,4.45875988 44.4165433,5.21141379 C44.4165433,5.60203164 44.3973111,5.95334953 44.3624526,6.26417654 C44.3251901,6.57619446 44.2915336,6.8322397 44.2626853,7.03469407 L37.5999093,7.03469407 Z" id="Fill-10"></path>
                                            <path d="M50.3420026,0.0425154187 C50.9838792,0.0425154187 51.6269579,0.0972971908 52.2700366,0.205669827 C52.9131153,0.314042463 53.4948912,0.541505907 54.0129602,0.889251069 C54.5310292,1.23699623 54.9553409,1.73598672 55.2834913,2.38860435 C55.6128438,3.04003108 55.77752,3.90105762 55.77752,4.97168399 L55.77752,11.4645149 C55.3976829,11.5371603 55.0539062,11.5836057 54.7473921,11.6062329 C54.4408779,11.6276693 54.1692223,11.6383875 53.9360311,11.6383875 C53.6872138,11.6383875 53.41075,11.6276693 53.1030339,11.6062329 C52.7965197,11.5836057 52.4527431,11.5371603 52.072906,11.4645149 L52.072906,5.36349275 C52.072906,4.59535704 51.927462,4.0451575 51.635372,3.71289414 C51.3432821,3.37943988 50.8961321,3.21390366 50.297528,3.21390366 C50.1364578,3.21390366 49.9657715,3.22819455 49.783065,3.25677635 C49.6003586,3.28654905 49.487369,3.31513084 49.4428944,3.34252173 L49.4428944,11.4645149 C49.0630573,11.5371603 48.7192807,11.5836057 48.4127665,11.6062329 C48.1062524,11.6276693 47.8357987,11.6383875 47.6026076,11.6383875 C47.3537902,11.6383875 47.0761245,11.6276693 46.7696103,11.6062329 C46.4618942,11.5836057 46.1181175,11.5371603 45.7394824,11.4645149 L45.7394824,0.802314779 C46.2503393,0.629633106 46.8705797,0.459333249 47.6026076,0.292606117 C48.3322314,0.125878985 49.2457638,0.0425154187 50.3420026,0.0425154187" id="Fill-12"></path>
                                        </g>
                                    </g>
                                </g>
                            </g>
                        </g>
                    </g>
                </g>
            </g>
        </g>
    </g>
</svg>