<?xml version="1.0" encoding="UTF-8"?>
<svg width="438px" height="452px" viewBox="0 0 438 452" version="1.1" xmlns="http://www.w3.org/2000/svg" xmlns:xlink="http://www.w3.org/1999/xlink">
    <!-- Generator: Sketch 56.2 (81672) - https://sketch.com -->
    <title>Group 278</title>
    <desc>Created with Sketch.</desc>
    <defs>
        <polygon id="path-1" points="0.066501688 0.554127672 23.5342085 230.428282 37.135387 230.428282 60.6041494 0.554127672"></polygon>
        <polygon id="path-3" points="23.6326285 0.660841749 0.0667797981 230.501602 60.857596 230.501602 37.2906872 0.660841749"></polygon>
        <polygon id="path-5" points="0.105729133 24.0930421 0.105729133 37.6968478 229.93549 61.1690876 229.93549 0.619746525"></polygon>
        <polygon id="path-7" points="0 61.4248967 229.260866 37.854496 229.260866 24.1937992 0 0.622338305"></polygon>
        <polygon id="path-9" points="10.485497 189.141701 0.868602321 179.522949 146.501444 0.672425945 189.30148 43.4807295"></polygon>
        <polygon id="path-11" points="178.671103 0.366811295 188.272747 9.97031046 42.8559408 188.556817 0.119085263 145.81276"></polygon>
        <polygon id="path-13" points="0.868602321 9.99324578 10.485497 0.367655094 189.30148 146.148182 146.501444 188.990565"></polygon>
        <polygon id="path-15" points="188.272747 179.257939 178.671103 188.862493 0.119085263 43.4165438 42.8559408 0.671433319"></polygon>
    </defs>
    <g id="Page-1" stroke="none" stroke-width="1" fill="none" fill-rule="evenodd">
        <g id="web---Esqueci-como-entrar---Educador---email---sucesso" transform="translate(-234.000000, -104.000000)">
            <g id="Group-2" transform="translate(193.000000, 82.000000)">
                <g id="Group-278">
                    <g>
                        <g id="Group-3" transform="translate(226.888112, 0.000000)">
                            <mask id="mask-2" fill="white">
                                <use xlink:href="#path-1"></use>
                            </mask>
                            <g id="Clip-2"></g>
                            <polygon id="Fill-1" mask="url(#mask-2)" points="0.066501688 0.554127672 23.5342085 230.428282 37.135387 230.428282 60.6041494 0.554127672"></polygon>
                        </g>
                        <g id="Group-6" transform="translate(226.888112, 285.465969)">
                            <mask id="mask-4" fill="white">
                                <use xlink:href="#path-3"></use>
                            </mask>
                            <g id="Clip-5"></g>
                            <polygon id="Fill-4" mask="url(#mask-4)" points="23.6326285 0.660841749 0.0667797981 230.501602 60.857596 230.501602 37.2906872 0.660841749"></polygon>
                        </g>
                        <g id="Group-9" transform="translate(272.510490, 227.832461)">
                            <mask id="mask-6" fill="white">
                                <use xlink:href="#path-5"></use>
                            </mask>
                            <g id="Clip-8"></g>
                            <polygon id="Fill-7" mask="url(#mask-6)" points="0.105729133 24.0930421 0.105729133 37.6968478 229.93549 61.1690876 229.93549 0.619746525"></polygon>
                        </g>
                        <g id="Group-12" transform="translate(0.000000, 226.931937)">
                            <mask id="mask-8" fill="white">
                                <use xlink:href="#path-7"></use>
                            </mask>
                            <g id="Clip-11"></g>
                            <polygon id="Fill-10" mask="url(#mask-8)" points="0 61.4248967 229.260866 37.854496 229.260866 24.1937992 0 0.622338305"></polygon>
                        </g>
                        <g id="Group-15" transform="translate(271.005245, 54.031414)">
                            <mask id="mask-10" fill="white">
                                <use xlink:href="#path-9"></use>
                            </mask>
                            <g id="Clip-14"></g>
                            <polygon id="Fill-13" mask="url(#mask-10)" points="10.485497 189.141701 0.868602321 179.522949 146.501444 0.672425945 189.30148 43.4807295"></polygon>
                        </g>
                        <g id="Group-18" transform="translate(54.020979, 272.858639)">
                            <mask id="mask-12" fill="white">
                                <use xlink:href="#path-11"></use>
                            </mask>
                            <g id="Clip-17"></g>
                            <polygon id="Fill-16" mask="url(#mask-12)" points="178.671103 0.366811295 188.272747 9.97031046 42.8559408 188.556817 0.119085263 145.81276"></polygon>
                        </g>
                        <g id="Group-21" transform="translate(271.005245, 272.858639)">
                            <mask id="mask-14" fill="white">
                                <use xlink:href="#path-13"></use>
                            </mask>
                            <g id="Clip-20"></g>
                            <polygon id="Fill-19" mask="url(#mask-14)" points="0.868602321 9.99324578 10.485497 0.367655094 189.30148 146.148182 146.501444 188.990565"></polygon>
                        </g>
                        <g id="Group-24" transform="translate(54.020979, 54.031414)">
                            <mask id="mask-16" fill="white">
                                <use xlink:href="#path-15"></use>
                            </mask>
                            <g id="Clip-23"></g>
                            <polygon id="Fill-22" mask="url(#mask-16)" points="188.272747 179.257939 178.671103 188.862493 0.119085263 43.4165438 42.8559408 0.671433319"></polygon>
                        </g>
                        <g id="Group-277" transform="translate(41.416084, 22.513089)">
                            <path d="M237.737797,135.599414 C237.737797,135.599414 242.816497,126.515413 249.16408,130.408104 C259.492353,136.742833 256.196208,150.995973 256.196208,150.995973 L253.822983,144.661244 C253.822983,144.661244 256.987282,154.691231 251.977142,161.553854 L252.504525,154.955178 C252.504525,154.955178 248.549152,164.457272 241.429479,165.51306 C234.309806,166.568848 233.25504,166.568848 232.463965,170.792001 C231.67289,175.015154 237.461448,177.822494 235.628264,177.52265 C229.16782,176.466862 229.827049,168.284504 229.827049,168.284504 L228.772283,174.223312 C228.772283,174.223312 220.597843,158.38649 221.125226,150.995973 C221.65261,143.605456 225.0806,138.590462 225.0806,138.590462 L220.861535,140.174144 C220.861535,140.174144 233.518731,120.026539 237.737797,135.599414" id="Fill-25" fill="#333333"></path>
                            <path d="M243.969356,157.618615 C247.354101,151.497155 252.504525,144.661983 240.462258,138.327254 C238.522543,137.306307 233.933254,138.096036 232.112728,138.018964 C230.841734,137.965119 230.694067,139.308081 229.555974,139.482286 C221.248634,140.74712 216.548595,147.252887 216.548595,147.252887 C216.548595,147.252887 224.165063,158.914067 201.512901,173.716217 C198.866492,175.445598 217.770015,205.078405 219.630623,194.10771 C225.959221,156.803547 241.935767,161.29487 243.969356,157.618615" id="Fill-27" fill="#EABFA5"></path>
                            <path d="M216.058445,159.16619 C216.951832,167.827876 212.074593,186.886964 210.91224,191.257927 C211.065181,191.441634 211.219177,191.624285 211.372118,191.801657 L221.14031,186.68742 C225.589314,168.212183 232.763835,162.833998 237.925861,160.5271 C235.961886,159.626513 233.947283,158.675248 231.936898,157.682807 C219.807085,151.699656 216.547857,147.252676 216.547857,147.252676 C216.547857,147.252676 219.60457,151.951989 216.058445,159.16619" id="Fill-39" fill="#D8A98F"></path>
                            <path d="M244.066395,155.835389 C244.066395,155.835389 246.615765,156.450914 244.681323,159.090384 C242.747937,161.729854 236.770576,161.818541 238.26518,158.474859 C239.759784,155.131178 244.066395,155.835389 244.066395,155.835389" id="Fill-41" fill="#EABFA5"></path>
                            <path d="M243.539011,157.001085 C243.539011,157.001085 243.934549,159.443123 240.506558,159.443123 C240.506558,159.443123 242.155158,158.71674 241.825016,158.056873 C241.495929,157.397005 240.571954,157.462464 240.571954,157.462464 C240.571954,157.462464 242.287004,157.330491 242.41885,157.726411 C242.550695,158.122332 242.484245,158.650226 242.484245,158.650226 L243.539011,157.001085 Z" id="Fill-55" fill="#D8A98F"></path>
                            <path d="M239.1881,155.219442 C239.1881,155.219442 244.461932,154.559575 244.989315,150.864316 C244.989315,150.864316 246.967002,150.292079 248.725298,148.620766 C250.360185,147.066646 245.912236,157.199045 245.912236,157.199045 C245.912236,157.199045 244.857469,155.351416 240.111021,157.462992 L239.1881,155.219442 Z" id="Fill-57" fill="#333333"></path>
                            <path d="M247.428251,32.226878 C248.762531,34.8315074 252.542814,34.2919996 255.085855,32.4221988 C257.649992,30.5386727 258.215347,27.5212301 257.805043,25.0010638 C256.723907,18.3601562 248.959772,15.4451251 241.72302,18.8468745 C232.475884,23.1924986 230.192314,32.0843466 229.936006,39.9805862 C229.810489,43.8606078 231.489677,50.9544484 225.574547,52.7492883 C221.838565,53.8832048 219.958971,50.8066381 219.15102,48.3287033 C218.60887,46.6637253 218.683759,44.1562284 221.320675,43.4699661 C223.863716,42.8090427 225.681079,45.7304086 222.500958,45.6628382 C222.656009,46.5813739 222.81106,47.4999096 222.967165,48.4184453 C223.150694,48.3234243 223.335278,48.2284034 223.519863,48.1344383 C225.58404,47.0744269 223.738199,44.621831 221.68035,45.678675 C221.495766,45.7736959 221.311182,45.8687168 221.126598,45.962682 C219.815523,46.6362748 220.089762,48.6866155 221.592804,48.7182891 C224.07256,48.7710785 227.358157,48.1164899 228.112315,45.554092 C228.823228,43.1405602 226.450003,40.8600578 223.999781,40.3722837 C221.097064,39.7937117 217.884246,41.2718152 216.28733,43.6209438 C214.313862,46.5254171 215.513131,49.8532614 217.098445,52.3438657 C218.74599,54.9305467 221.247896,56.5860225 225.004974,55.970498 C228.485703,55.4003724 231.375762,53.259234 232.633044,50.3579281 C234.129757,46.9023335 233.399859,43.1046634 233.5085,39.6290088 C233.656167,34.9106915 234.245782,29.6053559 237.889999,25.4941168 C241.25154,21.7027815 247.806913,18.3886625 252.148331,21.8833213 C253.610237,23.0605251 254.367559,24.9313817 254.366505,26.7336121 C254.366505,27.5624058 254.270521,28.5347867 253.744192,29.3118468 C253.497377,29.6760938 251.069305,31.4635431 250.868899,31.0729015 C249.991334,29.3593573 246.540138,30.492218 247.428251,32.226878" id="Fill-59" fill="#F1B11E"></path>
                            <path d="M277.51947,68.6766974 L271.542109,50.8285985 L269.631927,45.1262866 L263.654566,27.2771319 C263.301219,26.2223995 261.988035,25.7124538 260.721261,26.1368807 C259.455541,26.5623633 258.71404,27.7617387 259.067387,28.816471 L259.139111,29.0286845 L259.139111,29.0286845 C254.7882,30.4888395 251.004753,33.2296656 248.655789,36.7697233 C247.107392,39.1040709 245.691895,42.0264926 245.157129,45.3807316 C244.428285,49.9565175 240.799889,54.0635334 235.701148,55.7739103 L235.373116,55.884768 C232.037945,57.0028477 228.470725,56.9732856 225.456203,55.8013607 L222.040869,54.474235 C220.565251,53.9009421 218.819613,53.886161 217.187889,54.4341151 L219.683466,61.8858679 L221.593648,67.5881798 L224.089225,75.0409885 C225.720949,74.4930344 227.104802,73.4288 227.937013,72.0805585 L229.863016,68.9617602 C231.5633,66.2072089 234.392183,64.0312295 237.7263,62.912094 L238.054332,62.8022921 C243.154127,61.0908595 248.521833,62.1793771 251.858059,65.3900289 C254.305117,67.7444365 257.194122,69.2225399 259.835257,70.1505777 C263.84126,71.5589991 268.51071,71.4639782 272.861622,70.0038232 L272.861622,70.0038232 L272.932291,70.2160366 C273.285638,71.2707689 274.598822,71.7807146 275.865596,71.3562878 C277.132371,70.9308052 277.872817,69.7314298 277.51947,68.6766974" id="Fill-61" fill="#FFC645"></path>
                            <path d="M245.255538,53.491613 C247.000122,51.7168331 249.972453,47.6573276 251.653751,45.7220679 C253.928882,43.1037132 257.269327,40.897116 261.04961,39.4147894 C261.509488,39.2353054 272.501208,70.4929698 272.971634,70.3346016 L262.447175,38.9069553 L262.393382,38.7464755 C262.126526,37.9493554 262.936587,36.9590261 264.203361,36.5335435 C265.470135,36.1080608 266.713705,36.4100163 266.980561,37.2081921 L263.654883,27.2774486 C263.301536,26.2227162 261.988352,25.7127706 260.721577,26.1371974 C259.454803,26.56268 258.714357,27.7620554 259.067704,28.8167878 L259.138373,29.0290012 L259.138373,29.0290012 C254.788517,30.4881004 251.00507,33.2299823 248.656105,36.77004 C247.107708,39.1033319 245.692212,42.0268093 245.157445,45.3810483 C244.427547,49.9557784 240.800205,54.0627944 235.701465,55.774227 L235.372378,55.884029 C232.038261,57.0031644 228.471041,56.9736023 225.455464,55.8016775 L222.040131,54.4745518 C220.565567,53.9012588 218.819929,53.8864778 217.188206,54.433376 L219.663742,61.8281163 C221.295466,61.2801623 224.339521,60.9739837 227.306579,60.524218 C227.306579,60.524218 242.367588,56.4288157 245.255538,53.491613" id="Fill-63" fill="#E8A51F"></path>
                            <path d="M261.591127,74.5165785 C261.086948,71.633221 264.429503,69.7834802 267.584309,69.7401928 C270.76443,69.6969055 273.032177,71.763083 274.221954,74.0214139 C277.357774,79.9739475 272.917208,86.9833252 265.096115,88.6356336 C255.100095,90.7461542 247.923464,85.0290613 242.963953,78.8822626 C240.528497,75.8627084 237.596247,69.1890714 231.795032,71.3259867 C228.131828,72.6742282 228.48412,76.2628521 229.332153,78.7281175 C229.901726,80.3835933 231.471219,82.338913 233.988946,81.2957943 C236.415963,80.2885724 236.106917,76.861484 233.610285,78.8336963 C233.180995,78.0070142 232.751705,77.1813878 232.322415,76.3547057 C232.52704,76.3188089 232.73061,76.2829121 232.935234,76.2470153 C235.220913,75.8479274 235.224077,78.9181594 232.945782,79.3161915 C232.741157,79.3520883 232.537587,79.3879851 232.332963,79.4228261 C230.881604,79.6772711 229.865864,77.8750407 231.045093,76.9438355 C232.992192,75.4055521 236.008824,73.9453971 238.153164,75.5354141 C240.173041,77.0325217 239.653041,80.2843493 237.991784,82.1520385 C236.02359,84.3649705 232.570285,85.1240822 229.881686,84.2118812 C226.557062,83.0853553 225.510734,79.7057773 225.276576,76.7622399 C225.032925,73.7046774 226.032843,70.8741093 229.401767,69.0982736 C232.522821,67.4533557 236.117464,67.4185147 238.86724,68.9747464 C242.143345,70.8297662 243.846792,74.3001419 246.026994,77.0082386 C248.985614,80.6834372 252.650927,84.5613471 258.034455,85.64353 C262.99924,86.6412498 270.225444,85.3299609 271.585038,79.9232697 C272.042806,78.1020351 271.521752,76.1509386 270.435343,74.7140109 C269.936438,74.0530875 269.274045,73.3340958 268.385932,73.0321403 C267.970354,72.8906647 264.955831,72.9297289 265.031775,73.362602 C265.362971,75.2577418 261.926542,76.4360014 261.591127,74.5165785" id="Fill-65" fill="#F1B11E"></path>
                            <polygon id="Fill-165" fill="#846C5D" points="221.932967 86.9964169 208.268468 46.1944275 215.028466 43.9255387 228.694019 84.7275282"></polygon>
                            <polygon id="Fill-167" fill="#846C5D" points="209.726366 40.0268298 226.810417 91.0382908 211.851721 96.0575077 194.76767 45.0460467"></polygon>
                            <polygon id="Fill-169" fill="#FFD276" points="209.784273 49.4576576 221.177859 83.4783196 213.026625 86.212811 201.633039 52.1932047"></polygon>
                            <path d="M265.482265,216.277361 C261.728352,215.468627 259.152612,213.403506 257.417522,211.20641 L250.571033,220.854203 L244.242435,194.107921 C242.357568,186.563259 234.116678,180.584331 226.158466,176.431916 C208.336079,181.745698 208.924639,165.52668 209.259,162.34559 C205.801475,141.480048 221.076602,123.732249 234.428889,107.041294 L219.454371,101.901718 C162.600355,153.848607 157.345509,240.175126 157.345509,240.175126 L226.302969,250.41416 C215.587598,237.570497 227.717411,230.532613 221.578671,229.816788 C220.277089,229.665811 223.441388,227.130863 223.674491,225.956827 C223.894937,224.845082 222.570151,223.930769 222.887636,222.939384 C225.416965,215.041033 230.530473,211.000532 230.530473,211.000532 C230.927065,244.369773 251.977037,251.823637 251.977037,251.823637 L265.482265,216.277361 Z" id="Fill-171" fill="#45D0C1"></path>
                            <path d="M202.370426,218.966454 C201.697485,218.577923 200.915903,218.671889 200.624788,219.176555 C200.333672,219.682278 200.642719,220.406549 201.31566,220.795079 C201.988601,221.183609 202.769128,221.089644 203.061298,220.584977 C203.352413,220.079254 203.043367,219.354984 202.370426,218.966454 M208.838253,211.973968 C208.297158,212.189349 208.091479,212.949517 208.378375,213.671676 C208.665272,214.394891 209.336103,214.805592 209.878253,214.590212 C210.419348,214.374831 210.625027,213.614663 210.338131,212.891448 C210.051235,212.169289 209.380403,211.758588 208.838253,211.973968 M209.863486,203.471706 C209.087178,203.471706 208.457483,203.944699 208.457483,204.527495 C208.457483,205.111345 209.087178,205.583283 209.863486,205.583283 C210.640849,205.583283 211.270544,205.111345 211.270544,204.527495 C211.270544,203.944699 210.640849,203.471706 209.863486,203.471706 M210.549084,194.251508 C210.719956,193.694052 210.256914,193.057412 209.514358,192.828306 C208.771803,192.600256 208.031357,192.86737 207.860485,193.424826 C207.688558,193.982282 208.152655,194.618923 208.895211,194.846973 C209.636711,195.075023 210.377157,194.808965 210.549084,194.251508 M213.798819,185.437789 C213.057319,185.209739 212.315818,185.476853 212.144946,186.034309 C211.974074,186.591765 212.437116,187.228405 213.179672,187.456456 C213.922227,187.684506 214.662673,187.418447 214.833545,186.860991 C215.004417,186.303535 214.541375,185.666895 213.798819,185.437789" id="Fill-173" fill="#4ADDC7"></path>
                            <path d="M201.575238,229.10297 L201.319984,228.078856 C203.557144,227.518232 203.694263,222.762962 203.558198,220.976569 L203.543432,220.774913 L206.382863,217.079654 L206.500996,217.024753 C206.564282,216.996247 212.809554,214.127671 214.34002,213.106724 C214.688093,212.704468 213.714544,209.985814 213.003631,208.001988 C211.785376,204.600238 210.268622,200.368639 210.413125,196.895096 C210.646228,191.315256 214.530933,188.126776 215.80931,187.225133 L214.176531,183.684019 L214.715517,183.487642 C214.743996,183.47814 217.550729,182.448747 218.784805,181.460529 C218.963061,181.317998 218.987321,181.196582 218.986266,181.096282 C218.983101,180.539882 218.142453,179.703698 217.735313,179.385905 L218.383994,178.552889 C218.552757,178.683806 220.032594,179.870512 220.041068,181.087836 C220.044196,181.55555 219.837462,181.969419 219.444034,182.2851 C218.414582,183.10967 216.532879,183.909958 215.611013,184.27526 L217.155191,187.623165 L216.750161,187.867052 C216.699532,187.89767 211.715761,190.977404 211.466836,196.939439 C211.330772,200.206048 212.808499,204.331012 213.996166,207.645131 C215.250283,211.148237 216.00866,213.261924 214.924361,213.985139 C213.427647,214.983915 207.965012,217.513583 207.060023,217.93062 L204.623512,221.101152 C204.687853,222.315308 204.836575,228.286846 201.575238,229.10297" id="Fill-175" fill="#293841" opacity="0.0808454241"></path>
                            <path d="M258.833124,215.927262 L245.121161,241.794072 C230.881815,222.525938 231.67289,204.313592 231.67289,204.313592 C225.344292,235.195396 251.449759,250.504324 251.449759,250.504324 L262.788497,219.358573 L258.833124,215.927262 Z" id="Fill-177" fill="#293841" opacity="0.0808454241"></path>
                            <path d="M162.673556,237.746919 C163.024793,241.970072 167.243858,235.98692 167.243858,235.98692 C167.243858,235.98692 167.947388,218.742732 167.59615,216.631156 C167.243858,214.519579 162.673556,237.746919 162.673556,237.746919" id="Fill-179" fill="#293841" opacity="0.0808454241"></path>
                            <path d="M220.685705,229.300614 C220.264854,225.519836 148.610356,191.115923 222.267855,122.138115 C222.267855,122.138115 205.262912,127.615544 205.567739,123.54548 C206.095122,116.507597 209.55792,111.831511 209.55792,111.831511 C197.613746,124.959181 174.48272,162.604364 181.044421,194.019341 C188.339186,228.949036 209.610659,229.47693 209.610659,229.47693 C209.610659,229.47693 193.26178,224.021673 190.80101,204.665908 C190.80101,204.665908 197.832083,221.558519 220.685705,229.300614" id="Fill-181" fill="#293841" opacity="0.0808454241"></path>
                            <path d="M214.137399,181.350199 C215.187947,181.706 210.641904,177.721455 210.05018,175.675338 C209.533344,173.887889 209.884581,172.38339 210.336021,171.351885 C209.26016,168.668072 209.109328,165.712921 209.166286,163.813558 C206.654887,166.579723 198.711441,175.947731 198.711441,183.725723 C198.711441,183.725723 203.326044,170.660344 208.072493,169.604556 C208.072493,169.604556 205.96296,178.578755 214.137399,181.350199" id="Fill-183" fill="#293841" opacity="0.0808454241"></path>
                            <path d="M228.508591,204.313592 C220.597843,215.399368 208.731722,207.480956 208.731722,207.480956 L221.65261,222.789885 C221.65261,222.789885 225.0806,212.49595 230.354432,207.744903 L234.309806,197.187022 C234.309806,197.187022 230.166684,201.989802 228.508591,204.313592" id="Fill-185" fill="#293841" opacity="0.0808454241"></path>
                            <polygon id="Fill-187" fill="#293841" opacity="0.0808454241" points="242.484245 221.998044 249.86761 218.566732 239.847329 220.942255 241.956862 230.708296"></polygon>
                            <path d="M218.356465,175.939285 L219.015694,174.61955 L222.57553,173.035867 L226.991837,174.686064 L229.827049,178.909217 C229.827049,178.909217 221.849851,179.106649 219.674923,178.050861 C217.49894,176.995073 218.356465,175.939285 218.356465,175.939285" id="Fill-189" fill="#39AA99"></path>
                            <polygon id="Fill-191" fill="#4ADDC7" points="216.115086 176.687205 222.092447 173.519841 224.289526 181.878516 232.068427 179.502992 231.67289 173.43221 222.267538 172.287736"></polygon>
                            <path d="M220.465998,176.599153 C220.465998,176.599153 237.869642,197.055048 257.514666,185.177431 C257.514666,185.177431 249.472072,195.867287 240.111021,193.887684 C230.749969,191.908081 221.125226,182.801908 219.674923,177.786914 L220.465998,176.599153 Z" id="Fill-193" fill="#53656F"></path>
                            <path d="M218.400343,175.103523 C218.400343,175.103523 231.408777,214.519263 266.216066,182.49404 C266.216066,182.49404 268.663124,178.739657 268.214848,167.613762 C268.190589,167.021465 267.547181,166.665664 267.038784,166.969731 L256.371932,173.343524 C256.371932,173.343524 251.957735,197.811415 234.925368,191.291923 C222.970646,186.717193 218.400343,175.103523 218.400343,175.103523" id="Fill-195" fill="#293841"></path>
                            <path d="M214.269245,175.36747 C214.269245,175.36747 217.433544,172.904316 219.19184,173.960104 C220.94908,175.015893 222.267538,177.038783 222.267538,177.038783 L220.158006,179.062729 C220.158006,179.062729 216.466323,178.886412 214.269245,175.36747" id="Fill-197" fill="#293841"></path>
                            <path d="M212.599128,170.352476 C212.599128,170.352476 212.599128,173.871418 216.114664,175.895364 C216.114664,175.895364 218.840181,177.391416 217.345577,177.655363 C215.850973,177.91931 213.477749,176.159311 212.422982,173.343524 C211.368216,170.528793 212.599128,170.352476 212.599128,170.352476" id="Fill-199" fill="#53656F"></path>
                            <path d="M214.093416,176.071258 L217.34526,170.088107 L210.314188,161.554171 L209.259421,162.082065 C209.259421,162.082065 208.292201,173.255471 214.093416,176.071258" id="Fill-201" fill="#4ADDC7"></path>
                            <path d="M219.45416,101.901823 L234.428678,107.0414 C234.428678,107.042456 234.427623,107.043511 234.426569,107.044567 C240.592733,99.3352021 246.409769,93.2042402 249.896827,89.6969119 L256.327737,88.704471 L258.789562,85.8453967 L260.591103,85.8897398 C260.591103,85.8897398 261.670129,85.0398303 261.426478,84.3060575 C260.635403,81.9305342 259.018446,82.7846668 258.394024,81.5346136 C257.223234,79.1918197 255.935364,76.5702976 255.493417,75.507119 C254.807819,73.862201 254.851064,71.5362997 252.504209,71.8118604 C239.055938,73.3955426 244.593461,82.369742 241.283605,85.4547551 C232.192573,91.0082008 224.090913,97.3978308 216.849942,104.339638 C217.706412,103.519291 218.57343,102.706334 219.45416,101.901823" id="Fill-203" fill="#EABFA5"></path>
                            <path d="M270.171862,189.532558 L255.668825,189.532558 L251.977142,194.283604 C251.977142,194.283604 252.240834,197.187022 254.614058,197.714916 C255.679372,197.951412 256.263713,197.231365 256.587526,196.364563 C257.056897,199.594219 260.650486,203.660059 261.858194,204.949176 L257.417627,211.206833 C259.152718,213.403928 261.728457,215.467994 265.482371,216.277783 L269.380787,206.016578 C272.017703,199.800097 270.171862,189.532558 270.171862,189.532558" id="Fill-205" fill="#EABFA5"></path>
                            <path d="M157.04817,235.635343 C157.04817,235.635343 177.088731,215.926945 225.539424,233.727533 L223.498451,239.154285 C223.498451,239.154285 269.573809,260.31967 281.338673,296.487805 L216.203687,322.955359 L222.366686,341.900421 C222.366686,341.900421 219.765633,345.606238 214.654235,340.128809 C209.541782,334.65138 200.527749,314.253553 200.527749,314.253553 L250.22623,285.674423 C250.22623,285.674423 223.9963,262.077557 195.125236,268.392226 C195.125236,268.392226 164.183665,315.145694 176.629908,376.809001 C176.629908,376.809001 177.851327,406.889462 169.277132,405.397633 C160.703991,403.905805 165.755267,377.019103 165.755267,377.019103 C165.755267,377.019103 138.45264,317.416694 157.04817,235.635343" id="Fill-207" fill="#333333"></path>
                            <path d="M222.795238,95.9194106 C222.795238,95.9194106 230.882132,86.0657397 238.616733,103.661505 L231.936898,113.516232 C231.936898,113.516232 224.553534,101.198351 213.653578,104.717293 L222.795238,95.9194106 Z" id="Fill-209" fill="#4ADDC7"></path>
                            <path d="M255.880938,209.768533 C255.880938,209.768533 261.609374,216.279578 267.973834,215.575368 L262.563938,230.356518 C262.563938,230.356518 253.334732,230.532718 249.515423,217.15905 L255.880938,209.768533 Z" id="Fill-211" fill="#4ADDC7"></path>
                            <path d="M196.613195,430.254582 C193.036482,421.260323 190.124272,412.008451 187.562245,402.668949 C185.017093,393.322056 182.983504,383.838967 181.314864,374.29253 L180.209468,367.107892 L179.348779,359.888412 C179.02813,357.486494 178.853039,355.068739 178.676893,352.650984 C178.518678,350.23323 178.244439,347.821809 178.221234,345.396664 C177.781396,335.708752 178.212796,325.998668 179.34667,316.38994 L178.908942,323.632647 C178.850929,324.839413 178.714864,326.0409 178.722248,327.250833 L178.7117,330.875354 L178.679002,334.497763 C178.6674,335.705584 178.638921,336.91235 178.718029,338.119116 L179.031294,345.355488 C179.687359,354.986388 180.651416,364.607785 182.353808,374.118325 C183.929629,383.646813 185.971657,393.096118 188.343827,402.46307 C189.537822,407.145491 190.806706,411.808907 192.196888,416.438538 C193.532222,421.085062 195.031045,425.683019 196.613195,430.254582" id="Fill-213" fill="#EFEFEF"></path>
                            <path d="M199.626029,411.415415 C197.922582,407.740216 196.481771,403.949937 195.15171,400.12376 C193.815322,396.29864 192.691995,392.401726 191.618243,388.494254 C190.616215,384.566722 189.709116,380.611739 189.01297,376.618748 C188.284127,372.631036 187.81792,368.59687 187.527859,364.560592 C187.928671,366.548641 188.174431,368.552527 188.614269,370.527906 L189.17224,373.503117 L189.809319,376.462492 C190.666844,380.403749 191.559176,384.338671 192.637148,388.226083 C193.621245,392.137779 194.753009,396.01041 195.91958,399.874594 C196.498647,401.807742 197.101973,403.734556 197.728505,405.655034 C198.326557,407.585015 198.980512,409.495992 199.626029,411.415415" id="Fill-215" fill="#EFEFEF"></path>
                            <path d="M179.880276,446.887469 C179.880276,444.837128 196.029803,443.175318 215.950121,443.175318 C235.871493,443.175318 252.021021,444.837128 252.021021,446.887469 C252.021021,448.937809 235.871493,450.59962 215.950121,450.59962 C196.029803,450.59962 179.880276,448.937809 179.880276,446.887469" id="Fill-217" fill="#F5F5F5"></path>
                            <path d="M283.783833,281.142135 C285.973528,284.628348 288.019774,288.18741 290.04809,291.755974 C292.052146,295.337207 294.012957,298.941668 295.932632,302.566189 L296.433646,303.513231 L295.442165,303.958773 C292.636487,305.222552 289.842411,306.513781 287.015637,307.731104 C284.202575,308.976935 281.368418,310.177366 278.530041,311.367239 C272.840632,313.718479 267.129072,316.021153 261.291995,318.040876 C266.699782,315.056163 272.235196,312.355457 277.791705,309.704373 C280.575233,308.392028 283.36509,307.091297 286.174988,305.835965 C288.971174,304.551071 291.800057,303.341137 294.617338,302.102698 L294.127926,303.495282 C292.297907,299.824307 290.510078,296.13116 288.765494,292.416897 C287.04517,288.688909 285.342777,284.952475 283.783833,281.142135" id="Fill-219" fill="#EFEFEF"></path>
                            <g id="Group" transform="translate(0.463906, 0.177723)" fill="#D7DFE0">
                                <path d="M120.621689,20.7988872 C118.125057,18.3093387 116.199054,16.1682003 116.094632,12.471886 C116.004977,9.27601519 116.808709,6.11181806 116.865666,2.91489149 C116.902583,0.875108759 113.738284,0.875108759 113.701367,2.91489149 C113.627533,7.04830216 112.282706,11.3464158 113.261529,15.4513202 C114.012523,18.6017921 116.157918,20.8189472 118.38453,23.0382139 C119.828505,24.4793648 122.066719,22.2400381 120.621689,20.7988872" id="Fill-221"></path>
                                <path d="M129.931268,76.398698 C129.51358,77.4808809 127.992607,78.3455714 127.086563,78.9537054 C125.961127,79.7085939 124.784008,80.3800752 123.626929,81.0832301 C121.88762,82.1390183 123.476098,84.8787886 125.223846,83.8177215 C127.970457,82.1506319 131.75074,80.4286414 132.982707,77.241217 C133.717879,75.3386867 130.659057,74.5141161 129.931268,76.398698" id="Fill-223"></path>
                                <path d="M69.5677278,62.6784141 C68.3758418,64.1924143 67.5067144,66.1055025 68.49714,67.9594665 C69.5635088,69.9549061 71.156206,69.7025727 72.9208301,69.8303231 C72.7467936,71.4699621 71.54436,73.1982874 71.3713783,74.7819696 C71.2005061,76.3477034 71.6023721,77.5048473 72.677179,78.6429869 C74.0789635,80.1274251 76.3140134,77.884931 74.9153932,76.4036602 C73.7298359,75.1483281 75.3647237,72.6693375 75.7402205,71.3918338 C76.0840744,70.2230763 76.1916605,69.2158544 75.9511738,68.0249253 C75.8488615,67.518147 75.3489022,67.0261497 74.8468334,66.9184593 C73.4081321,66.6133366 70.7880925,67.2679252 71.8354755,64.9399123 C72.4409114,63.595894 75.4585979,61.093676 76.8962445,62.454587 C78.3760816,63.8545621 80.6174601,61.6184028 79.1344587,60.2152603 C75.9248046,57.1788135 71.8713375,59.7538809 69.5677278,62.6784141" id="Fill-225"></path>
                                <path d="M320.219767,23.9403849 C320.444432,24.0100669 320.669098,24.079749 320.893763,24.149431 C321.218631,24.2507866 321.557211,24.219113 321.862038,24.0998089 C321.935872,24.1378173 322.004432,24.1726583 322.023418,24.184272 C322.179523,24.2919624 322.199564,24.3056876 322.083539,24.2275593 C322.161592,24.2972413 322.235426,24.3700907 322.306095,24.4461074 C322.900983,25.0605762 323.945202,25.0447393 324.543254,24.4461074 C325.157128,23.8316387 325.139197,22.8223052 324.543254,22.2067807 C323.467393,21.0960916 321.750233,20.3781556 320.219767,20.8859898 C318.740985,21.3769312 318.694575,23.4673918 320.219767,23.9403849" id="Fill-227"></path>
                                <path d="M325.018321,65.494729 C323.05962,66.2411712 320.16956,67.6897126 317.606478,68.1447573 C319.591548,66.0891377 322.558606,64.0620245 324.547895,63.565804 C326.523473,63.072751 325.685988,60.0173 323.707247,60.5114089 C321.176862,61.1427702 319.408019,62.8784859 317.371265,64.4040998 C315.611915,65.7217235 314.114147,66.8577515 313.115283,68.8732511 C312.674391,69.7643363 313.016135,70.9309823 314.061408,71.1991525 C316.601286,71.8505738 319.411183,71.0608442 322.04599,70.0641802 C321.144164,71.0154453 320.14952,71.93926 319.687532,72.7479937 C318.650697,74.5639493 317.538973,76.7948297 317.623354,78.931745 C317.703517,80.9630814 320.867816,80.9725835 320.787653,78.931745 C320.587248,73.8312324 327.105704,71.6985403 327.021323,67.0213987 C327.004446,66.0775241 326.010856,65.1167568 325.018321,65.494729" id="Fill-229"></path>
                                <path d="M348.91458,124.682108 L348.91458,116.940013 C348.91458,114.901286 345.750281,114.898119 345.750281,116.940013 L345.750281,124.682108 C345.750281,126.719779 348.91458,126.724002 348.91458,124.682108" id="Fill-231"></path>
                                <path d="M359.286414,150.548918 C358.307591,150.57848 357.390999,150.942727 356.761304,151.71662 C356.222318,152.378599 356.113677,153.308748 356.761304,153.955946 C357.31822,154.513403 358.456313,154.622149 358.998463,153.955946 C359.05964,153.875707 359.12609,153.79969 359.198869,153.728952 C359.200978,153.727896 359.200978,153.72684 359.204143,153.725785 C359.211526,153.723673 359.217855,153.721561 359.226293,153.718394 C359.246333,153.718394 359.260045,153.717338 359.286414,153.716283 C360.113351,153.690944 360.90759,153.005737 360.868564,152.1326 C360.831647,151.296416 360.172418,150.521468 359.286414,150.548918" id="Fill-233"></path>
                                <path d="M64.4352347,173.919845 C64.1050929,173.205076 63.5481762,172.604333 62.6716654,172.197854 C61.7793331,171.785041 60.8490291,171.757591 59.9007942,171.573884 C58.6593342,171.335275 57.4938174,170.988977 56.2164953,170.960471 C54.1797415,170.916128 54.1807963,174.083492 56.2164953,174.127835 C57.486434,174.156341 58.6983606,174.581824 59.9493134,174.771866 C60.8026194,174.902784 61.8521119,174.856329 61.6844041,175.977576 C61.481889,177.327929 63.2127605,178.908444 64.3287033,177.517971 C64.6820501,177.077707 65.0153562,176.636388 65.3180742,176.159172 C65.9498792,175.162508 65.3033075,174.215466 64.4352347,173.919845" id="Fill-235"></path>
                                <path d="M119.790428,136.935585 L118.384424,138.342951 C117.780043,138.947918 117.780043,139.978367 118.384424,140.583334 C118.990915,141.189356 120.015093,141.189356 120.621584,140.583334 C121.0899,140.113508 121.559271,139.644738 122.027587,139.174912 C122.631968,138.569946 122.631968,137.540552 122.027587,136.935585 C121.422151,136.328507 120.396918,136.328507 119.790428,136.935585" id="Fill-237"></path>
                                <path d="M401.056533,17.5761994 C397.61905,18.8684841 393.629923,21.0391846 392.490776,24.8484683 C391.379052,28.5690658 395.259537,30.5096045 398.243471,31.1884762 C400.226432,31.6392978 401.073409,28.5859584 399.085175,28.1340811 C398.15909,27.9239792 397.140186,27.6980406 396.344892,27.1521981 C395.157225,26.3360738 395.484202,25.557958 396.233087,24.4715519 C397.57264,22.5310133 399.752842,21.436161 401.898237,20.6305946 C403.786268,19.9200492 402.968825,16.8572077 401.056533,17.5761994" id="Fill-239"></path>
                                <path d="M409.307443,55.7442086 C408.606023,55.333507 407.525943,55.5446646 407.143062,56.3122226 C406.907849,56.7820483 406.673691,57.2508183 406.439533,57.7195882 C406.057708,58.4850346 406.235963,59.435244 407.006998,59.8871213 C407.708417,60.2978229 408.788498,60.0866653 409.171378,59.3191073 C409.406591,58.8492816 409.640749,58.3805116 409.874907,57.9106859 C410.256733,57.1462952 410.078477,56.1950301 409.307443,55.7442086" id="Fill-241"></path>
                                <path d="M395.851683,150.548918 C393.815984,150.548918 393.811765,153.716283 395.851683,153.716283 C397.887382,153.716283 397.890546,150.548918 395.851683,150.548918" id="Fill-243"></path>
                                <path d="M380.262553,216.46663 C380.028395,217.785309 379.957725,219.127216 379.769977,220.45223 C379.606488,221.605151 379.491519,223.38521 378.56016,224.214003 C377.034968,225.570691 379.279511,227.804739 380.797319,226.45333 C383.195858,224.319582 382.80243,220.18406 383.313992,217.308093 C383.668393,215.315821 380.619064,214.459577 380.262553,216.46663" id="Fill-245"></path>
                                <path d="M320.825836,200.939364 C320.342753,200.806335 319.854396,200.62474 319.367094,200.515993 C319.276384,200.495933 319.200441,200.449479 319.124498,200.401968 C319.371313,200.649023 318.389326,200.628963 319.077033,200.379797 C318.987378,200.321728 318.899833,200.259437 318.801739,200.219317 C318.944133,200.277385 319.033788,200.328063 319.090745,200.372406 C319.528473,200.207703 320.059021,199.604848 320.488311,199.355682 C321.01253,199.050559 321.556789,198.784501 322.113706,198.546948 C323.980642,197.749828 322.370014,195.020616 320.515735,195.812457 C318.39249,196.719379 314.39598,199.01783 316.123688,201.875849 C316.843038,203.065722 318.256425,203.514432 319.515816,203.869177 C320.66973,204.193304 322.02827,204.182746 321.842631,205.626008 C321.583158,207.641508 324.749567,207.622504 325.00693,205.626008 C325.36766,202.817612 323.17691,201.587618 320.825836,200.939364" id="Fill-249"></path>
                                <path d="M98.6951007,252.36839 C97.8407399,253.154952 95.9421605,252.632337 94.8916132,252.608054 C92.8548594,252.562655 92.8548594,255.730019 94.8916132,255.775418 C97.0401723,255.823984 99.2034981,256.199845 100.93226,254.607716 C102.435302,253.22569 100.192869,250.990586 98.6951007,252.36839" id="Fill-251"></path>
                                <path d="M173.227001,115.412499 C172.389516,115.584593 171.906433,116.574922 172.121606,117.360428 C172.346271,118.178664 173.125743,118.56825 173.915763,118.472173 C173.932639,118.480619 173.938968,118.481675 173.966392,118.4954 C173.937913,118.480619 173.93053,118.476396 173.921037,118.472173 C173.923147,118.472173 173.924201,118.472173 173.925256,118.472173 C173.956899,118.486954 174.017021,118.516516 174.046554,118.531297 C174.326067,118.670661 174.499049,118.805802 174.706838,118.981063 C175.162497,119.366426 175.581239,119.79402 176.044282,120.170936 C176.706675,120.710444 177.634869,120.81919 178.282496,120.170936 C178.838358,119.61348 178.948053,118.474285 178.282496,117.93161 C176.77418,116.703728 175.39771,114.965901 173.227001,115.412499" id="Fill-253"></path>
                                <path d="M191.945623,1.16967366 C191.827489,0.461239798 191.065948,0.0463150492 190.420431,0.00725088708 C188.95536,-0.0835468951 187.358444,0.692457406 186.209803,1.54659003 C185.524205,2.05653572 185.177187,2.91805886 185.642339,3.71412314 C186.036822,4.38982756 187.116902,4.79525022 187.80672,4.28213717 C188.247612,3.95378705 188.732804,3.654999 189.239092,3.43750664 C189.313981,3.40583299 189.367774,3.39527511 189.436334,3.36993619 C189.843473,3.72045786 190.451019,3.87354715 190.94465,3.73735048 C191.838037,3.49135183 192.191383,2.63616342 192.04899,1.78942131 C192.015237,1.58248683 191.98043,1.37660814 191.945623,1.16967366" id="Fill-255"></path>
                                <path d="M14.7294758,18.2233976 C12.7475698,18.1547713 10.9333717,18.9803977 8.93458947,18.9561146 C6.67844424,18.9286641 4.46238013,19.1039249 2.4098048,18.0122399 C0.877229293,17.1971715 -0.87473762,19.2316753 0.49329434,20.4996769 C0.646235462,20.6422083 0.800231349,20.7847397 0.953172471,20.9272711 C1.33710742,21.2830717 1.77061639,21.3970968 2.17775621,21.3495863 C3.7799463,21.9313256 5.38319116,22.0728012 7.19317022,22.0918054 C8.5042448,22.1055307 9.8300861,22.2153326 11.1327225,22.0347929 C12.3636349,21.8637552 13.4679753,21.3474748 14.7294758,21.3907621 C16.7662296,21.4614999 16.7630653,18.2941354 14.7294758,18.2233976" id="Fill-257"></path>
                                <path d="M27.1039947,236.476244 C25.0250502,236.193293 23.2277283,234.752142 21.0580739,235.011866 C20.2026584,235.114277 19.4854173,235.666454 19.4758532,236.595548 C19.4674863,237.373664 20.2100418,238.280586 21.0580739,238.17923 C22.8659435,237.962794 24.497667,239.289919 26.2633459,239.530639 C27.1155971,239.646776 27.9509721,239.323705 28.2093898,238.424173 C28.4203431,237.687233 27.9499173,236.591325 27.1039947,236.476244" id="Fill-261"></path>
                                <path d="M351.551496,280.058863 C349.240503,280.369264 348.037015,282.134542 346.523425,283.715057 C345.059409,285.242782 343.891783,286.709272 343.170323,288.627639 C341.475313,289.186151 342.325455,291.97132 344.236692,291.616576 C344.427604,291.580679 344.618517,291.544782 344.808375,291.509941 C345.338922,291.410697 345.775596,290.900751 345.91377,290.403475 C346.388415,288.701545 347.24594,287.50956 348.464195,286.253172 C349.185655,285.509897 350.470361,283.37087 351.551496,283.226227 C353.539731,282.959113 353.5661,279.788581 351.551496,280.058863" id="Fill-263"></path>
                                <path d="M359.381871,332.360708 C358.444183,331.891938 357.506496,331.422112 356.568809,330.953342 C355.805158,330.571147 354.854813,330.749575 354.404428,331.521356 C353.994124,332.223455 354.205077,333.303527 354.971893,333.687834 C355.90958,334.157659 356.847267,334.626429 357.784954,335.095199 C358.548605,335.477395 359.49895,335.298966 359.949335,334.527185 C360.359639,333.825086 360.148686,332.745015 359.381871,332.360708" id="Fill-265"></path>
                                <path d="M398.704615,270.98922 C397.401979,273.190538 395.664778,275.051893 394.029891,277.002989 C392.729364,278.554998 394.955975,280.806994 396.26705,279.243372 C398.07281,277.088508 399.997759,275.018108 401.43646,272.587683 C402.477514,270.830852 399.742505,269.235556 398.704615,270.98922" id="Fill-267"></path>
                                <path d="M24.5739266,325.809753 L18.2453285,325.809753 C16.2096294,325.809753 16.2054104,328.977118 18.2453285,328.977118 L24.5739266,328.977118 C26.6096257,328.977118 26.6138448,325.809753 24.5739266,325.809753" id="Fill-271"></path>
                                <path d="M71.5110294,321.058707 C71.535289,326.509741 72.5605219,332.232113 69.6177238,337.152086 C68.569286,338.904694 71.3032404,340.49999 72.3495686,338.750549 C75.6256729,333.274176 74.7027523,327.149549 74.6753284,321.058707 C74.6658355,319.021036 71.5015365,319.016812 71.5110294,321.058707" id="Fill-273"></path>
                                <path d="M66.7645808,374.376009 C64.7288817,374.376009 64.7246626,377.543374 66.7645808,377.543374 C68.8002798,377.543374 68.8044989,374.376009 66.7645808,374.376009" id="Fill-275"></path>
                                <path d="M8.30542134,122.610757 C5.80140601,124.315855 2.49049443,125.492003 1.2500892,128.484107 C0.91994733,129.280171 1.60660023,130.217711 2.35442957,130.432036 C3.26152864,130.692816 3.97560546,130.112132 4.30152826,129.326626 C4.68440845,128.402811 6.04189274,127.704935 6.83507704,127.207659 C7.84870751,126.57313 8.91296676,126.018841 9.9023376,125.345249 C11.5773066,124.206053 9.99515704,121.459948 8.30542134,122.610757" id="Fill-259"></path>
                                <path d="M434.110801,134.120115 C432.449544,135.770312 432.927353,138.066651 432.94423,140.166614 C432.960051,142.204285 436.12435,142.208508 436.108529,140.166614 C436.10009,139.14989 435.546338,137.156562 436.347961,136.359442 C437.796155,134.922514 435.558995,132.682132 434.110801,134.120115" id="Fill-269"></path>
                            </g>
                            <path d="M319.540623,200.55752 C319.55539,200.567022 319.573321,200.570189 319.588087,200.579691 C319.578595,200.570189 319.568047,200.560687 319.55539,200.550129 C319.551171,200.551185 319.548006,200.554353 319.544842,200.556464 C319.542733,200.556464 319.541678,200.556464 319.540623,200.55752" id="Fill-247" fill="#3AC1B0"></path>
                        </g>
                    </g>
                </g>
            </g>
        </g>
    </g>
</svg>