<?xml version="1.0" encoding="UTF-8"?>
<svg width="32px" height="32px" viewBox="0 0 32 32" version="1.1" xmlns="http://www.w3.org/2000/svg" xmlns:xlink="http://www.w3.org/1999/xlink">
    <!-- Generator: Sketch 62 (91390) - https://sketch.com -->
    <title>symbol-guten</title>
    <desc>Created with Sketch.</desc>
    <g id="Symbols" stroke="none" stroke-width="1" fill="none" fill-rule="evenodd">
        <g id="Components/carousel/sequencias_planos/desktop/default" transform="translate(-264.000000, -20.000000)">
            <g id="Group">
                <g>
                    <g id="UI/brand/guten/icon/color" transform="translate(264.000000, 20.000000)">
                        <g id="Group">
                            <path d="M16,32 L16,32 C7.16338611,32 0,24.8367863 0,16.000385 C0,7.16321374 7.16338611,0 16,0 C24.8366139,0 32,7.16321374 32,16.000385 C32,24.8367863 24.8366139,32 16,32" id="Fill-1" fill="#96DD48"></path>
                            <path d="M16.2228107,23.8139535 C14.7723156,23.8139535 13.5388362,23.5973745 12.5215748,23.1634173 C11.5043134,22.7302593 10.6737494,22.139662 10.0290849,21.3932237 C9.38442036,20.6467854 8.91608118,19.7692809 8.62486517,18.7607101 C8.33205345,17.7521393 8.18604651,16.6716419 8.18604651,15.5224146 C8.18604651,14.4131466 8.36237183,13.3638174 8.71502245,12.3752262 C9.06687523,11.386635 9.59106406,10.5283109 10.2859932,9.80265139 C10.9809224,9.0761927 11.8418048,8.50077989 12.8694383,8.07721212 C13.896274,7.65364435 15.0842758,7.44186047 16.4342415,7.44186047 C17.1387449,7.44186047 17.915055,7.5225781 18.7607782,7.68401336 C19.6065014,7.84624781 20.5328077,8.12835992 21.5404949,8.5311489 C21.5197508,8.87479822 21.4798582,9.19686956 21.4192214,9.49976047 C21.3585847,9.80265139 21.2835866,10.1103374 21.1926314,10.4228185 C21.1016763,10.7360988 20.9907748,11.0685596 20.8599271,11.4217991 C20.7290793,11.7750387 20.5734982,12.1738317 20.3923858,12.6173791 C19.7070308,12.3344678 19.0727384,12.1282782 18.4887107,11.9964128 C17.9038851,11.8653465 17.4012382,11.7998134 16.9783766,11.7998134 C16.312968,11.7998134 15.7488866,11.9013098 15.2861323,12.1027043 C14.8225803,12.3040988 14.4499833,12.5766207 14.1683415,12.9194708 C13.8859019,13.2631201 13.6792582,13.661114 13.5492083,14.1150508 C13.4175627,14.5689876 13.3521388,15.0381088 13.3521388,15.5224146 C13.3521388,16.8738356 13.6441527,17.868021 14.2289783,18.5025735 C14.8122082,19.1387243 15.6691013,19.4560006 16.7964664,19.4560006 L17.3406015,19.4560006 L17.3406015,15.0077398 C17.8440462,14.9070426 18.292439,14.8367144 18.6849823,14.7959559 C19.0783234,14.7559967 19.4557074,14.7352179 19.8179323,14.7352179 C20.5224357,14.7352179 21.3585847,14.8255258 22.3255814,15.0077398 L22.3255814,22.694296 C21.7415537,22.9164693 20.925351,23.1586222 19.878569,23.4207547 C18.8309892,23.6828872 17.6126691,23.8139535 16.2228107,23.8139535" id="Fill-4" fill="#FFFFFF"></path>
                        </g>
                    </g>
                </g>
            </g>
        </g>
    </g>
</svg>