<?xml version="1.0" encoding="UTF-8"?>
<svg width="32px" height="32px" viewBox="0 0 32 32" version="1.1" xmlns="http://www.w3.org/2000/svg" xmlns:xlink="http://www.w3.org/1999/xlink">
    <!-- Generator: Sketch 62 (91390) - https://sketch.com -->
    <title>symbol-arvore</title>
    <desc>Created with Sketch.</desc>
    <defs>
        <polygon id="path-1" points="0 0.31576989 15.2762791 0.31576989 15.2762791 14.8837209 0 14.8837209"></polygon>
    </defs>
    <g id="Symbols" stroke="none" stroke-width="1" fill="none" fill-rule="evenodd">
        <g id="Components/coluna/sequencias_planos/desktop/default" transform="translate(-246.000000, -20.000000)">
            <g id="Components/coluna/sequencias_planos/mobile/default">
                <g id="Components/carousel/sequencias_planos/desktop/default">
                    <g id="Group">
                        <g id="UI/brand/arvore_livros/icon/color" transform="translate(246.000000, 20.000000)">
                            <g id="Group">
                                <path d="M16,32 L16,32 C7.16338611,32 0,24.8367863 0,16.000385 C0,7.16321374 7.16338611,0 16,0 C24.8366139,0 32,7.16321374 32,16.000385 C32,24.8367863 24.8366139,32 16,32" id="Fill-1" fill="#45D0C1"></path>
                                <g id="Group-6" transform="translate(8.186047, 7.441860)">
                                    <path d="M9.6744186,0.96068919 L9.51459169,0.580590424 C9.3640301,0.168468684 9.09842401,0.00208845476 8.47996332,0.00208845476 L6.96199365,0 C6.36978473,0 6.03160024,0.229033872 5.85015422,0.693366981 L5.20930233,2.23255814 C6.73885366,1.11941175 8.45448367,0.952335371 9.33855044,0.952335371 C9.46440449,0.952335371 9.57558843,0.955816129 9.6744186,0.96068919" id="Fill-1" fill="#FFFFFF"></path>
                                    <g id="Group-5" transform="translate(0.000000, 1.488372)">
                                        <mask id="mask-2" fill="white">
                                            <use xlink:href="#path-1"></use>
                                        </mask>
                                        <g id="Clip-4"></g>
                                        <path d="M5.68879256,8.40546389 L7.64931349,3.07160832 L9.46840186,8.40546389 L5.68879256,8.40546389 Z M9.95521116,0.356504284 C9.95521116,0.356504284 9.71376,0.31576989 9.31993674,0.31576989 C8.15643907,0.31576989 5.67238326,0.673762546 4.22758326,3.49148592 C4.18538791,3.57373807 4.14397395,3.65755692 4.1033414,3.74450918 C4.08693209,3.7797601 4.0697414,3.81579437 4.05333209,3.85182864 C3.99941581,3.97324847 3.94628093,4.09780171 3.89549023,4.22783843 L0.0268018605,14.3432852 C-0.0732167442,14.604142 0.119006512,14.8837993 0.397183256,14.8837993 L3.33601116,14.8837993 C3.50244837,14.8837993 3.65169488,14.7796132 3.70873674,14.6229425 L5.14650419,10.6991236 L10.057574,10.6991236 L11.5180019,14.6245092 C11.5758251,14.7803966 11.7242902,14.8837993 11.889946,14.8837993 L14.8787833,14.8837993 C15.15696,14.8837993 15.3491833,14.604142 15.249946,14.3440685 L9.95521116,0.356504284 Z" id="Fill-3" fill="#FFFFFF" mask="url(#mask-2)"></path>
                                    </g>
                                </g>
                            </g>
                        </g>
                    </g>
                </g>
            </g>
        </g>
    </g>
</svg>