<svg xmlns="http://www.w3.org/2000/svg" width="21" height="22" viewBox="0 0 21 22">
    <path fill="#FFE268" fill-rule="evenodd" d="M17.79 1.846a2.59 2.59 0 0 1 3.051 2.548v12.361a2.588 2.588 0 0 1-2.126 2.548l-8.073 1.467a.863.863 0 0 1-.153.014l.076-.003a.863.863 0 0 1-.045.002l-.031.001h-.032l-.02-.001-.028-.002a.864.864 0 0 1-.053-.007l-.022-.004-8.072-1.467a2.589 2.589 0 0 1-2.127-2.548V4.394c0-1.615 1.463-2.836 3.09-2.54l7.263 1.653zM2.88 3.544a.865.865 0 0 0-1.02.85v12.361c0 .418.3.775.71.85l7.055 1.282V5.08zm15.337-.014l-.104.011L11.35 5.08v13.807l7.056-1.282a.863.863 0 0 0 .701-.738l.008-.112V4.394a.864.864 0 0 0-1.003-.853z"/>
</svg>
