<svg xmlns="http://www.w3.org/2000/svg" width="126" height="25" viewBox="0 0 126 25">
    <g fill="none" fill-rule="evenodd">
        <path fill="#FFF" d="M116.617 24.72H71.853c-4.852 0-8.821-3.98-8.821-8.844V8.923c0-4.865 3.97-8.845 8.821-8.845h44.764c4.852 0 8.822 3.98 8.822 8.845v6.953c0 4.865-3.97 8.845-8.822 8.845"/>
        <path fill="#134D45" d="M6.251 18c-1.127 0-2.088-.16-2.878-.477-.792-.317-1.438-.75-1.94-1.298a4.956 4.956 0 0 1-1.091-1.929A8.008 8.008 0 0 1 0 11.923c0-.814.137-1.583.411-2.308a5.197 5.197 0 0 1 1.222-1.884c.54-.533 1.21-.955 2.01-1.265C4.442 6.156 5.366 6 6.416 6c.548 0 1.151.06 1.81.178.658.118 1.38.326 2.162.621a4.75 4.75 0 0 1-.094.71 7.339 7.339 0 0 1-.176.676c-.07.23-.157.473-.259.732-.102.26-.223.551-.363.876a9.705 9.705 0 0 0-1.481-.455 5.81 5.81 0 0 0-1.176-.144c-.517 0-.956.075-1.316.222-.36.148-.65.348-.87.6a2.35 2.35 0 0 0-.48.875 3.46 3.46 0 0 0-.154 1.032c0 .99.227 1.719.682 2.184.454.466 1.12.699 1.998.699h.423v-3.26c.391-.075.74-.126 1.045-.156.305-.03.6-.044.882-.044.547 0 1.198.066 1.951.2v5.633c-.455.163-1.09.34-1.904.533-.816.192-1.763.288-2.845.288M22 17.218c-.248.09-.542.179-.884.268-.342.09-.706.176-1.092.258-.387.08-.783.144-1.19.189-.407.045-.807.067-1.201.067-.743 0-1.455-.06-2.14-.179a4.368 4.368 0 0 1-1.801-.726c-.517-.365-.928-.894-1.233-1.587-.307-.692-.459-1.62-.459-2.782V6.201c.32-.075.637-.126.95-.157.313-.03.615-.044.906-.044.277 0 .575.015.895.044.32.03.633.082.938.157v6.213c0 .893.146 1.505.437 1.832.291.327.736.491 1.333.491.247 0 .436-.007.568-.022.13-.014.225-.03.282-.045V6.201c.321-.075.637-.126.951-.157.313-.03.615-.044.905-.044.277 0 .575.015.896.044.32.03.634.082.939.157v11.017zM26.567 9.229h-3.384a5.428 5.428 0 0 1-.15-.86 8.728 8.728 0 0 1 0-1.522c.023-.26.074-.542.15-.847h10.634c.076.305.125.588.15.848a8.728 8.728 0 0 1 0 1.522 5.575 5.575 0 0 1-.15.859h-3.384v8.588c-.398.06-.755.106-1.075.137-.321.03-.61.046-.87.046-.259 0-.549-.015-.869-.046-.32-.03-.67-.077-1.052-.137V9.229zM40.718 8.816a1.89 1.89 0 0 0-1.258.444c-.351.296-.557.755-.619 1.376h3.66c-.031-.518-.194-.951-.492-1.298-.297-.348-.728-.522-1.291-.522zm-1.83 4.37c.168.607.461 1.035.88 1.287.42.252.972.377 1.658.377.442 0 .938-.052 1.486-.155a9.077 9.077 0 0 0 1.624-.466c.214.385.4.843.561 1.376a6.41 6.41 0 0 1 .263 1.663c-1.357.489-2.745.732-4.162.732-1.097 0-2.04-.148-2.824-.444-.785-.296-1.426-.706-1.922-1.231a4.888 4.888 0 0 1-1.097-1.874A7.635 7.635 0 0 1 35 12.078c0-.843.123-1.635.366-2.375a5.406 5.406 0 0 1 1.098-1.93 5.193 5.193 0 0 1 1.83-1.296C39.025 6.158 39.88 6 40.853 6c.808 0 1.53.133 2.162.399a4.686 4.686 0 0 1 1.612 1.099 4.727 4.727 0 0 1 1.017 1.684c.237.659.355 1.373.355 2.142 0 .399-.02.758-.056 1.075a34.8 34.8 0 0 1-.105.787h-6.951zM51.585 6c.64 0 1.28.057 1.92.169a4.29 4.29 0 0 1 1.737.707c.516.36.939.876 1.266 1.552.328.674.492 1.565.492 2.673v6.72c-.378.074-.72.122-1.026.146-.306.022-.576.033-.809.033-.247 0-.523-.011-.83-.033a8.736 8.736 0 0 1-1.026-.147v-6.314c0-.794-.144-1.364-.435-1.708-.291-.345-.737-.516-1.333-.516-.16 0-.33.015-.513.044-.182.031-.294.06-.339.089v8.405c-.378.075-.72.123-1.026.147-.305.022-.575.033-.807.033-.248 0-.524-.011-.83-.033A8.666 8.666 0 0 1 47 17.82V6.786a18.646 18.646 0 0 1 1.856-.527c.727-.173 1.637-.259 2.73-.259"/>
        <path fill="#80D234" d="M76.507 6.169a4.3 4.3 0 0 1 1.735.708c.518.36.94.876 1.268 1.55.327.674.49 1.565.49 2.673v6.72c-.38.074-.72.123-1.026.145-.306.024-.575.035-.808.035-.247 0-.524-.011-.83-.035a8.606 8.606 0 0 1-1.025-.145v-6.315c0-.793-.147-1.363-.438-1.708-.29-.344-.735-.517-1.331-.517-.16 0-.332.016-.513.046-.183.03-.295.061-.34.09v8.404c-.377.074-.72.123-1.025.145-.305.024-.574.035-.807.035-.248 0-.525-.011-.83-.035A8.64 8.64 0 0 1 70 17.82V6.786c.51-.18 1.129-.355 1.857-.528.727-.172 1.637-.258 2.728-.258.64 0 1.281.056 1.922.169zM85.46 9.261c-.351.296-.557.755-.618 1.375h3.659c-.03-.516-.194-.95-.491-1.297-.298-.348-.728-.522-1.292-.522-.489 0-.909.149-1.259.444zm-.572 3.926c.168.606.461 1.035.881 1.286.419.252.971.377 1.658.377.441 0 .937-.051 1.486-.154a9.236 9.236 0 0 0 1.624-.466c.214.384.4.842.56 1.376.16.531.248 1.085.263 1.663a12.244 12.244 0 0 1-4.163.731c-1.098 0-2.039-.148-2.824-.443-.786-.295-1.425-.706-1.921-1.231a4.911 4.911 0 0 1-1.098-1.874A7.613 7.613 0 0 1 81 12.078c0-.843.121-1.634.365-2.373.243-.74.61-1.382 1.098-1.93a5.189 5.189 0 0 1 1.83-1.298C85.025 6.16 85.878 6 86.854 6c.808 0 1.53.134 2.161.4.633.266 1.17.633 1.614 1.098.441.466.78 1.027 1.017 1.685.236.657.354 1.372.354 2.14 0 .4-.019.76-.057 1.077-.038.317-.072.581-.102.787h-6.953zM104.58 12.915l1.419-6.733c.121-.03.356-.06.708-.09a16.965 16.965 0 0 1 2.459 0c.389.03.666.06.834.09l-3.705 11.637c-.26.075-.54.125-.847.146a12.422 12.422 0 0 1-1.84 0 6.47 6.47 0 0 1-.972-.146l-1.67-6.328c-.29 1.01-.583 2.072-.88 3.187a270.28 270.28 0 0 1-.858 3.14 5.92 5.92 0 0 1-.949.147 12.422 12.422 0 0 1-1.841 0 4.056 4.056 0 0 1-.846-.146L92 6.182c.168-.03.462-.06.881-.09.42-.032.88-.046 1.384-.046.396 0 .78.014 1.155.045.373.03.62.06.743.091l1.488 6.915 1.646-6.915c.258-.076.544-.125.856-.147a12.268 12.268 0 0 1 1.853 0c.314.022.63.071.95.147l1.624 6.733zM115.094 10.547c.434.12.828.263 1.183.432.354.172.657.389.91.655s.452.592.597.976c.144.385.216.85.216 1.397 0 .563-.112 1.088-.336 1.575-.224.488-.556.91-.998 1.264-.44.356-.983.635-1.626.843-.644.207-1.385.311-2.223.311-.694 0-1.338-.053-1.93-.156a10.503 10.503 0 0 1-1.887-.532c.072-1.006.34-2.026.802-3.061.463.222.946.389 1.454.5a7.03 7.03 0 0 0 2.06.144c.187-.015.355-.048.499-.1.144-.052.264-.123.357-.21a.465.465 0 0 0 .142-.356c0-.193-.095-.336-.282-.433a4.149 4.149 0 0 0-.651-.255l-1.474-.42c-.768-.223-1.404-.6-1.91-1.133-.505-.53-.758-1.255-.758-2.173 0-.575.115-1.1.346-1.574.232-.474.557-.876.976-1.208a4.473 4.473 0 0 1 1.486-.766A6.359 6.359 0 0 1 113.946 6c.548 0 1.148.06 1.798.178.651.119 1.295.29 1.931.511a6.918 6.918 0 0 1-.282 1.518 9.27 9.27 0 0 1-.542 1.43 9.611 9.611 0 0 0-1.41-.442 6.452 6.452 0 0 0-1.518-.2c-.68 0-1.02.192-1.02.576 0 .163.08.29.24.377.159.09.338.164.541.223l1.41.376z"/>
    </g>
</svg>
