<svg xmlns="http://www.w3.org/2000/svg" width="19" height="21" viewBox="0 0 19 21">
    <path fill="#96DD48" fill-rule="evenodd" d="M10.8 21c-1.95 0-3.607-.278-4.974-.835-1.368-.556-2.484-1.313-3.35-2.27a8.734 8.734 0 0 1-1.888-3.377C.196 13.224 0 11.839 0 10.365c0-1.423.237-2.77.71-4.038a9.113 9.113 0 0 1 2.111-3.3c.934-.93 2.092-1.668 3.471-2.212C7.672.272 9.27 0 11.083 0c.947 0 1.99.104 3.127.31 1.136.208 2.38.57 3.734 1.088-.027.44-.08.854-.162 1.242s-.183.783-.304 1.183a18.15 18.15 0 0 1-.447 1.282c-.177.453-.386.964-.629 1.533a16.588 16.588 0 0 0-2.558-.796c-.785-.168-1.462-.252-2.03-.252-.893 0-1.652.13-2.273.388-.623.259-1.124.609-1.503 1.048-.379.44-.656.951-.832 1.533a6.177 6.177 0 0 0-.264 1.806c0 1.733.393 3.007 1.178 3.822.785.816 1.935 1.224 3.45 1.224h.73V9.704c.678-.129 1.28-.22 1.808-.271a15.599 15.599 0 0 1 1.523-.078c.946 0 2.07.117 3.369.35v9.86c-.785.284-1.882.595-3.289.93-1.407.336-3.045.505-4.912.505"/>
</svg>
