<svg xmlns="http://www.w3.org/2000/svg" width="51" height="51" viewBox="0 0 51 51">
    <path fill="#96DD48" fill-rule="evenodd" d="M25.5 19.125h12.75v-4.25H25.5v4.25zM42.479 25.5V12.282c0-.892-.978-1.657-2.125-1.657H10.625c-1.147 0-2.125.765-2.125 1.657v26.436c0 .892.978 1.657 2.125 1.657h29.75c1.147 0 2.125-.765 2.125-1.657V25.5h-.021zm4.271-13.218v26.436c0 3.272-2.847 5.907-6.375 5.907h-29.75c-3.485 0-6.375-2.656-6.375-5.907V12.282c0-3.23 2.89-5.907 6.375-5.907h29.75c3.485 0 6.375 2.656 6.375 5.907zm-34 15.343h8.5v-12.75h-8.5v12.75zm0 8.5h25.5v-4.25h-25.5v4.25zm12.75-8.5h12.75v-4.25H25.5v4.25z"/>
</svg>
